<svg id="Layer_1" data-name="Layer 1" xmlns="http://www.w3.org/2000/svg" viewBox="0 0 411.1 102.34"><defs><style>.cls-1{fill:#fff;}</style></defs><path class="cls-1" d="M380.41,0h8.86V23.19H411.1v8.4H389.27V68c0,2.28,1,3.41,3.07,3.41h16v8.19H389.16a8.46,8.46,0,0,1-6.31-2.5,8.73,8.73,0,0,1-2.44-6.37Z"/><path class="cls-1" d="M215.43,79.56h-8.85v-48H216.8c3.48-7.42,10.25-10.26,18.17-9.8,6.5.37,11.69,2,15.56,6.08s5.79,10.12,5.79,18.22V79.53h-8.86V47.91c0-5.91-1.33-10.33-4-13.29s-6.24-4.43-10.78-4.43q-8.07,0-12.66,5.51t-4.61,14.71Z"/><path class="cls-1" d="M27.73,30a20,20,0,0,0-7,1.19,17.63,17.63,0,0,0-5.68,3.35,18,18,0,0,0-4,5.06,18.79,18.79,0,0,0-2,6.31H45.46a16.17,16.17,0,0,0-5.74-11.6,18.44,18.44,0,0,0-5.57-3.18A18.79,18.79,0,0,0,27.73,30M8.87,54.1q.33,8.41,5.22,13.52t13.64,5.12a23.59,23.59,0,0,0,6.94-.91,16.23,16.23,0,0,0,5-2.5,13.68,13.68,0,0,0,3.41-3.69,21.69,21.69,0,0,0,2.11-4.49l8.41,2.27a25,25,0,0,1-8.81,12.79q-6.42,4.94-17.33,4.94a28.64,28.64,0,0,1-11.09-2.1,24.81,24.81,0,0,1-8.69-6,27.44,27.44,0,0,1-5.68-9.21A32.66,32.66,0,0,1,0,52.05V49.33a28.77,28.77,0,0,1,2.1-11A26.39,26.39,0,0,1,8,29.49a27.38,27.38,0,0,1,8.8-5.79,28.33,28.33,0,0,1,11-2.11,26.34,26.34,0,0,1,12,2.56A26.84,26.84,0,0,1,48,30.46a26.15,26.15,0,0,1,6.31,16.37V54.1Z"/><path class="cls-1" d="M171.58,30a20,20,0,0,0-7,1.19,17.64,17.64,0,0,0-9.66,8.41,18.57,18.57,0,0,0-2,6.31h36.37a16.17,16.17,0,0,0-5.74-11.6A18.56,18.56,0,0,0,178,31.14,18.79,18.79,0,0,0,171.58,30M152.71,54.1q.34,8.41,5.23,13.52t13.64,5.12a23.52,23.52,0,0,0,6.93-.91,16.28,16.28,0,0,0,5.06-2.5A13.68,13.68,0,0,0,187,65.64a21.16,21.16,0,0,0,2.1-4.49l8.41,2.27a24.89,24.89,0,0,1-8.8,12.79q-6.44,4.94-17.34,4.94a28.63,28.63,0,0,1-11.08-2.1,24.81,24.81,0,0,1-8.69-6,27.63,27.63,0,0,1-5.69-9.21,32.88,32.88,0,0,1-2-11.82V49.33a28.77,28.77,0,0,1,2.1-11,26.22,26.22,0,0,1,5.85-8.81,27.53,27.53,0,0,1,8.81-5.79,28.33,28.33,0,0,1,11-2.11,26.34,26.34,0,0,1,12,2.56,26.84,26.84,0,0,1,8.3,6.31,24.89,24.89,0,0,1,4.77,8.18,25.32,25.32,0,0,1,1.54,8.19V54.1Z"/><path class="cls-1" d="M291.28,72.74a17.83,17.83,0,0,0,7.32-1.48,16.2,16.2,0,0,0,5.74-4.2,20.14,20.14,0,0,0,3.75-6.54,25,25,0,0,0,1.37-8.47V50.69a24.58,24.58,0,0,0-1.37-8.35,19.72,19.72,0,0,0-3.8-6.54,17.45,17.45,0,0,0-5.8-4.26A17.15,17.15,0,0,0,291.28,30,17.67,17.67,0,0,0,284,31.48a17.35,17.35,0,0,0-5.74,4.15,18.9,18.9,0,0,0-3.81,6.48,24.83,24.83,0,0,0-1.36,8.35v1.82q0,9.66,5.06,15.06a17.15,17.15,0,0,0,13.13,5.4M309.46,70h-1.37a18.42,18.42,0,0,1-7.55,8.41,20.37,20.37,0,0,1-10.17,2.73A28.08,28.08,0,0,1,280,79.27a23.38,23.38,0,0,1-8.35-5.57,26.16,26.16,0,0,1-5.62-9A34.38,34.38,0,0,1,264,52.28V50.46a34,34,0,0,1,2.05-12.27,26.3,26.3,0,0,1,5.62-9A24.18,24.18,0,0,1,280,23.53a26.72,26.72,0,0,1,10.12-1.93,21.73,21.73,0,0,1,10.51,2.55,17.08,17.08,0,0,1,7.54,7.44h10.16l-.16,48h-8.73Z"/><path class="cls-1" d="M107.86,72.79a18.3,18.3,0,0,0,7.39-1.48,17.79,17.79,0,0,0,6-4.2,20,20,0,0,0,4-6.54,23.08,23.08,0,0,0,1.48-8.46V50.74a22.79,22.79,0,0,0-1.48-8.35,20,20,0,0,0-4-6.54,18.36,18.36,0,0,0-6-4.26,17.94,17.94,0,0,0-7.33-1.53,18.85,18.85,0,0,0-7.44,1.47,17.8,17.8,0,0,0-6,4.21,19.37,19.37,0,0,0-4,6.48A23.19,23.19,0,0,0,89,50.51v1.82a23.88,23.88,0,0,0,1.42,8.53,18.71,18.71,0,0,0,4,6.42,17.62,17.62,0,0,0,6,4.09,19.27,19.27,0,0,0,7.5,1.42M126.73,71h-1.36a18.24,18.24,0,0,1-7.45,7.68,21.26,21.26,0,0,1-10.28,2.55A29.36,29.36,0,0,1,97,79.27a26.39,26.39,0,0,1-8.81-5.57,26,26,0,0,1-6-9A32.13,32.13,0,0,1,79.9,52.33V50.51A31.12,31.12,0,0,1,82.18,38.3a27.64,27.64,0,0,1,6-9.1A25.42,25.42,0,0,1,97,23.58a28.71,28.71,0,0,1,10.46-1.93,21,21,0,0,1,10.74,2.67,17.19,17.19,0,0,1,7.22,7.28H135.6V93.48a8.73,8.73,0,0,1-2.45,6.36,8.42,8.42,0,0,1-6.31,2.5H90.13V94.16h33.53q3.07,0,3.07-3.41Z"/><polygon class="cls-1" points="62.52 23.19 71.4 23.19 71.41 79.56 62.49 79.56 62.52 23.19"/><path class="cls-1" d="M59.59,7.41a7.1,7.1,0,0,1,2.17-5.23,7.39,7.39,0,0,1,10.46,0,7.14,7.14,0,0,1,2.17,5.23,7.14,7.14,0,0,1-2.17,5.23,7.39,7.39,0,0,1-10.46,0,7.1,7.1,0,0,1-2.17-5.23"/><path class="cls-1" d="M327.93,31.59h10.23c1.44-3.11,3.48-6.24,6.13-7.72a18.39,18.39,0,0,1,9.1-2.22q8.52,0,13.75,5.57t5.57,16.26l-9.32,1.36c0-5.23-1.25-9-3.75-11.31a13.06,13.06,0,0,0-9.21-3.46,12.72,12.72,0,0,0-6.08,1.36,12.36,12.36,0,0,0-4.26,3.75,16.19,16.19,0,0,0-2.5,5.57,28.09,28.09,0,0,0-.8,6.82v32H328Z"/></svg>