<svg id="Layer_1" data-name="Layer 1" xmlns="http://www.w3.org/2000/svg" viewBox="0 0 373.45 338.06"><defs><style>.cls-1{fill:blue;}.cls-2{fill:#fff;}</style></defs><path class="cls-1" d="M196.46,5.68a13,13,0,0,1,21.31,2.69,13,13,0,0,0,18.86,4.84,13,13,0,0,1,20,7.91,13,13,0,0,0,17.07,9.38A13,13,0,0,1,291,43.12a13,13,0,0,0,14.19,13.33A13,13,0,0,1,318.91,73a13,13,0,0,0,10.44,16.44,13,13,0,0,1,9.14,19.43,13,13,0,0,0,6,18.52,13,13,0,0,1,4,21.09,13,13,0,0,0,1.22,19.43,13,13,0,0,1-1.35,21.44,13,13,0,0,0-3.64,19.12,13,13,0,0,1-6.64,20.43,13,13,0,0,0-8.29,17.62h0a13,13,0,0,1-11.51,18.13,13,13,0,0,0-12.41,15,13,13,0,0,1-15.65,14.7h0A13,13,0,0,0,274.5,305.8a13,13,0,0,1-18.82,10.34,13,13,0,0,0-18.1,7.17,13,13,0,0,1-20.8,5.34,13,13,0,0,0-19.32,2.44,13,13,0,0,1-21.47,0,13,13,0,0,0-19.32-2.44,13,13,0,0,1-20.8-5.34,13,13,0,0,0-18.11-7.17A13,13,0,0,1,98.94,305.8a13,13,0,0,0-15.75-11.45,13,13,0,0,1-15.65-14.7,13,13,0,0,0-12.41-15,13,13,0,0,1-11.51-18.13,13,13,0,0,0-8.29-17.62,13,13,0,0,1-6.64-20.43A13,13,0,0,0,25,189.35a13,13,0,0,1-1.35-21.44,13,13,0,0,0,1.23-19.43h0a13,13,0,0,1,4-21.09,13,13,0,0,0,6-18.52A13,13,0,0,1,44.1,89.44,13,13,0,0,0,54.53,73,13,13,0,0,1,68.22,56.45a13,13,0,0,0,14.2-13.33A13,13,0,0,1,99.79,30.5a13,13,0,0,0,17.07-9.38,13,13,0,0,1,20-7.91,13,13,0,0,0,18.86-4.84A13,13,0,0,1,177,5.68,13,13,0,0,0,196.46,5.68Z"/><path class="cls-2" d="M186.48,337.77a14,14,0,0,1-11.32-6.11,12,12,0,0,0-17.83-2.26,14,14,0,0,1-22.4-5.75A12,12,0,0,0,118.22,317,14,14,0,0,1,98,305.89a12,12,0,0,0-14.54-10.56A14,14,0,0,1,66.55,279.5a12,12,0,0,0-11.46-13.85A14,14,0,0,1,42.7,246.12a12,12,0,0,0-7.65-16.26,14,14,0,0,1-7.15-22,12,12,0,0,0-3.37-17.65,14,14,0,0,1-1.45-23.08,12,12,0,0,0,1.13-17.94,14,14,0,0,1,4.33-22.72,12,12,0,0,0,5.56-17.09,14,14,0,0,1,9.84-20.93,12,12,0,0,0,9.63-15.17A14,14,0,0,1,68.32,55.45a12,12,0,0,0,13.1-12.3,14,14,0,0,1,18.71-13.59,12,12,0,0,0,15.75-8.66,14,14,0,0,1,21.5-8.52,12,12,0,0,0,17.41-4.47,14,14,0,0,1,23-2.9,12,12,0,0,0,9,4.05,12,12,0,0,0,9-4.05h0a14,14,0,0,1,22.95,2.9,12,12,0,0,0,17.41,4.47,14,14,0,0,1,21.5,8.52,12,12,0,0,0,15.75,8.66A14,14,0,0,1,292,43.15a12,12,0,0,0,13.1,12.3,14,14,0,0,1,14.74,17.83,12,12,0,0,0,9.63,15.17,14,14,0,0,1,9.85,20.93,12,12,0,0,0,5.56,17.09,14,14,0,0,1,4.33,22.72,12,12,0,0,0,1.13,17.94,14,14,0,0,1-1.46,23.08,12,12,0,0,0-3.36,17.65,14,14,0,0,1-7.15,22,12,12,0,0,0-7.65,16.26,14,14,0,0,1-12.39,19.53A12,12,0,0,0,306.9,279.5a14,14,0,0,1-16.52,15.9h0l-.34-.07a12,12,0,0,0-14.54,10.56A14,14,0,0,1,255.23,317a12,12,0,0,0-16.71,6.62,14,14,0,0,1-22.4,5.76,12,12,0,0,0-17.83,2.25,14,14,0,0,1-11.57,6.11Zm-21-13.35c.5,0,1,.05,1.51.11a14,14,0,0,1,9.8,6,12,12,0,0,0,9.91,5.24,11.81,11.81,0,0,0,9.91-5.24,14,14,0,0,1,20.81-2.63,12,12,0,0,0,19.2-4.93,14,14,0,0,1,19.5-7.72,12,12,0,0,0,17.37-9.55,14,14,0,0,1,16.62-12.39h0l.34.08a12,12,0,0,0,14.45-13.57,14,14,0,0,1,13.37-16.16,12,12,0,0,0,10.62-16.74,14,14,0,0,1,8.93-19A12,12,0,0,0,344,209.09a14,14,0,0,1,3.93-20.6,12,12,0,0,0,1.25-19.79,14,14,0,0,1-1.32-20.92,12,12,0,0,0-3.71-19.48,14,14,0,0,1-6.48-19.94,12,12,0,0,0-8.44-17.94A14,14,0,0,1,318,72.72a12,12,0,0,0-12.63-15.27A14,14,0,0,1,290,43.09a12,12,0,0,0-16-11.65,14,14,0,0,1-18.37-10.1A12,12,0,0,0,237.19,14a14,14,0,0,1-20.31-5.22,12,12,0,0,0-19.67-2.48,14,14,0,0,1-10.49,4.72,13.92,13.92,0,0,1-10.48-4.72,12,12,0,0,0-19.67,2.48,14,14,0,0,1-9,7.19,14,14,0,0,1-11.33-2,12,12,0,0,0-18.43,7.3,14,14,0,0,1-18.37,10.1,12,12,0,0,0-16,11.65A14,14,0,0,1,68.13,57.45,12,12,0,0,0,55.5,72.72a14,14,0,0,1-11.24,17.7,12,12,0,0,0-8.44,17.94,14,14,0,0,1-6.48,19.94,12,12,0,0,0-3.71,19.48,14,14,0,0,1-1.32,20.92,12,12,0,0,0,1.24,19.79,14,14,0,0,1,3.93,20.6,12,12,0,0,0,6.13,18.85,14,14,0,0,1,8.93,19,12,12,0,0,0,10.62,16.74,14,14,0,0,1,13.37,16.16A12,12,0,0,0,83,293.38a14,14,0,0,1,17,12.32,12,12,0,0,0,17.37,9.55,14,14,0,0,1,19.5,7.72A12,12,0,0,0,156,327.9,14,14,0,0,1,165.5,324.42Z"/><path class="cls-2" d="M1.43,172.92c0-.78,0-1.56.11-2.33a22.18,22.18,0,0,1,.35-2.31c.15-.77.34-1.53.56-2.27s.49-1.48.79-2.2a22.62,22.62,0,0,1,1-2.11q.55-1,1.2-2a23.22,23.22,0,0,1,1.39-1.87c.5-.61,1-1.18,1.57-1.74s1.13-1.07,1.73-1.57,1.23-.95,1.88-1.39,1.32-.83,2-1.2,1.4-.7,2.12-1a21.28,21.28,0,0,1,2.2-.78,22,22,0,0,1,2.26-.57c.77-.15,1.54-.27,2.31-.35s1.56-.11,2.34-.11h323c.78,0,1.56,0,2.33.11s1.55.2,2.32.35a22,22,0,0,1,2.26.57,21.28,21.28,0,0,1,2.2.78,22.62,22.62,0,0,1,2.11,1q1,.56,2,1.2c.65.44,1.27.9,1.88,1.39s1.18,1,1.73,1.57,1.07,1.13,1.57,1.74a23.22,23.22,0,0,1,1.39,1.87q.64,1,1.2,2a22.62,22.62,0,0,1,1,2.11c.3.72.56,1.45.79,2.2s.41,1.5.56,2.27a22.18,22.18,0,0,1,.35,2.31c.07.77.11,1.55.11,2.33s0,1.56-.11,2.33a22.78,22.78,0,0,1-.35,2.32c-.15.76-.34,1.52-.56,2.26s-.49,1.48-.79,2.2a22.62,22.62,0,0,1-1,2.11q-.56,1-1.2,2c-.43.65-.9,1.27-1.39,1.88s-1,1.18-1.57,1.73-1.13,1.07-1.73,1.57-1.23,1-1.88,1.39-1.32.83-2,1.2a22.62,22.62,0,0,1-2.11,1c-.72.3-1.45.56-2.2.79s-1.5.41-2.26.56a22.78,22.78,0,0,1-2.32.35c-.77.07-1.55.11-2.33.11h-323c-.78,0-1.56,0-2.34-.11a23,23,0,0,1-2.31-.35c-.76-.15-1.52-.34-2.26-.56s-1.48-.49-2.2-.79-1.43-.63-2.12-1-1.35-.77-2-1.2-1.27-.9-1.88-1.39-1.18-1-1.73-1.57S7.33,188.63,6.83,188s-1-1.23-1.39-1.88-.83-1.32-1.2-2a22.62,22.62,0,0,1-1-2.11c-.3-.72-.56-1.45-.79-2.2s-.41-1.5-.56-2.26a22.78,22.78,0,0,1-.35-2.32C1.47,174.48,1.43,173.7,1.43,172.92Z"/><path class="cls-1" d="M24.81,197.73c-.67,0-1.34,0-2-.12s-1.62-.2-2.41-.35a23.29,23.29,0,0,1-2.36-.6,21.59,21.59,0,0,1-2.3-.82c-.75-.31-1.49-.66-2.2-1s-1.41-.8-2.09-1.25-1.33-.94-1.95-1.45S8.27,191,7.7,190.47a23.29,23.29,0,0,1-1.64-1.81,23.63,23.63,0,0,1-1.45-2c-.45-.67-.87-1.37-1.25-2.08s-.73-1.45-1-2.2A26.09,26.09,0,0,1,.9,177.76c-.15-.8-.27-1.61-.35-2.41s-.12-1.62-.12-2.43h0c0-.81,0-1.63.12-2.43s.2-1.62.35-2.41.36-1.58.6-2.36a24,24,0,0,1,.82-2.29,21.13,21.13,0,0,1,1-2.21c.38-.71.8-1.41,1.25-2.08a23.63,23.63,0,0,1,1.45-2,26.21,26.21,0,0,1,3.44-3.44c.62-.51,1.28-1,1.95-1.45s1.39-.87,2.09-1.25,1.46-.73,2.2-1a23.28,23.28,0,0,1,2.3-.82,20.87,20.87,0,0,1,2.36-.59,24.13,24.13,0,0,1,2.41-.36c.8-.08,1.62-.12,2.43-.12h323c.81,0,1.63,0,2.43.12a24.13,24.13,0,0,1,2.41.36,23.25,23.25,0,0,1,2.36.59,22.23,22.23,0,0,1,2.29.82,23.51,23.51,0,0,1,2.21,1c.71.38,1.41.8,2.08,1.25a23.63,23.63,0,0,1,2,1.45c.63.52,1.23,1.07,1.8,1.64a23.16,23.16,0,0,1,1.64,1.8,23.63,23.63,0,0,1,1.45,2,23.07,23.07,0,0,1,1.25,2.09,22.09,22.09,0,0,1,1,2.2,24,24,0,0,1,.82,2.29,22,22,0,0,1,.59,2.36c.16.8.28,1.61.36,2.41s.12,1.62.12,2.43,0,1.63-.12,2.43a24.13,24.13,0,0,1-.36,2.41,20.87,20.87,0,0,1-.59,2.36c-.23.77-.51,1.54-.82,2.3s-.66,1.49-1,2.2-.8,1.41-1.25,2.08a23.63,23.63,0,0,1-1.45,2,21.47,21.47,0,0,1-1.64,1.8,23.16,23.16,0,0,1-1.8,1.64c-.62.51-1.28,1-1.95,1.45s-1.38.87-2.09,1.25a23.51,23.51,0,0,1-2.21,1,22.23,22.23,0,0,1-2.29.82,23.29,23.29,0,0,1-2.36.6c-.8.15-1.61.27-2.41.35s-1.62.12-2.43.12H24.81Zm323.8-47.62H25.24c-.75,0-1.5,0-2.24.11a20.66,20.66,0,0,0-2.21.33c-.73.14-1.46.33-2.17.54s-1.42.47-2.11.76a20.68,20.68,0,0,0-2,1c-.65.35-1.3.74-1.93,1.15s-1.22.87-1.79,1.34-1.13,1-1.66,1.5-1,1.09-1.5,1.66a21.54,21.54,0,0,0-1.34,1.8c-.41.62-.8,1.26-1.15,1.92s-.67,1.34-1,2-.54,1.4-.75,2.11a21.48,21.48,0,0,0-.54,2.17,20.66,20.66,0,0,0-.33,2.21c-.07.74-.11,1.49-.11,2.24h0a22.59,22.59,0,0,0,.44,4.45c.14.73.33,1.46.54,2.17s.47,1.42.75,2.11.61,1.37,1,2a21.65,21.65,0,0,0,1.15,1.92c.42.62.87,1.23,1.34,1.8a22.12,22.12,0,0,0,3.16,3.16c.57.47,1.18.92,1.8,1.34s1.26.8,1.92,1.15a20.68,20.68,0,0,0,2,1,21.13,21.13,0,0,0,2.11.76c.71.21,1.44.4,2.17.54a20.66,20.66,0,0,0,2.21.33c.74.07,1.49.11,2.24.11h323c.74,0,1.5,0,2.24-.11a21,21,0,0,0,2.21-.33c.73-.14,1.46-.33,2.17-.54s1.42-.47,2.11-.76a20.68,20.68,0,0,0,2-1,21.65,21.65,0,0,0,1.92-1.15c.62-.42,1.23-.87,1.8-1.34s1.13-1,1.66-1.5a21.4,21.4,0,0,0,1.5-1.66,22.12,22.12,0,0,0,1.34-1.8,21.65,21.65,0,0,0,1.15-1.92,20.68,20.68,0,0,0,.95-2c.29-.69.54-1.4.76-2.11s.4-1.44.54-2.17a20.66,20.66,0,0,0,.33-2.21c.07-.74.11-1.49.11-2.24s0-1.5-.11-2.23a20.85,20.85,0,0,0-.33-2.22,21.48,21.48,0,0,0-.54-2.17c-.22-.71-.47-1.42-.76-2.11s-.6-1.36-.95-2-.74-1.3-1.15-1.92-.87-1.23-1.34-1.8-1-1.13-1.5-1.66-1.08-1-1.66-1.5-1.18-.92-1.8-1.34A21.65,21.65,0,0,0,359,152.8a20.68,20.68,0,0,0-2-1c-.69-.29-1.4-.54-2.11-.76s-1.44-.4-2.17-.54a20.66,20.66,0,0,0-2.21-.33C349.84,150.16,349.22,150.12,348.61,150.11Z"/><path class="cls-2" d="M51.85,122.19c-1.17,3.42.59,6.45,4.47,7.79s7.14,0,8.31-3.41-.58-6.45-4.47-7.79S53,118.77,51.85,122.19Zm16,5.49C66,133.1,60.73,135.76,55,133.8s-8.26-7.3-6.4-12.72,7.14-8,12.85-6.1S69.72,122.29,67.88,127.68Z"/><path class="cls-2" d="M66.61,104.8c1.36-2.59,1-4.24-.91-5.23s-3.51-.41-4.88,2.18L59,105.14l5.78,3Zm7,8-1.8,3.42-17.36-9.15,3.65-6.92c2.33-4.43,5.74-5.88,9.35-4s4.37,5.54,2,10l-1.85,3.5Z"/><polygon class="cls-2" points="88.54 89.14 80.02 101.08 64.05 89.69 72.4 77.98 75.04 79.86 68.91 88.45 72.79 91.22 77.6 84.48 80.21 86.34 75.4 93.08 79.61 96.09 85.9 87.26 88.54 89.14"/><polygon class="cls-2" points="94.4 73.3 84.97 64.24 87.47 61.64 101.61 75.22 99.45 77.46 82.55 75.12 92.52 84.69 90.01 87.3 75.87 73.72 78.54 70.93 94.4 73.3"/><path class="cls-2" d="M104.22,48c4.77-3.29,9.48-2.11,12.57,1.78l-3,2.25c-1.89-2.26-4.69-3.24-7.64-1.21s-3.29,5.44-.94,8.85S111,64,113.83,62s3-5,1.6-7.56l3.16-2c2.55,4.29,2,9.09-2.82,12.38C111.18,68,105.32,67,101.89,62S99.63,51.19,104.22,48Z"/><path class="cls-2" d="M125.78,49.25l5.39-2.6-5.86-5.32-.11.05Zm-.38-12.88,15.74,14.18-3.73,1.8-3.88-3.52L126,52.46l.4,5.2-3.53,1.7-1.38-21.11Z"/><polygon class="cls-2" points="140.26 30.43 145.18 46.05 155.07 42.93 156.04 46.02 142.44 50.3 136.55 31.6 140.26 30.43"/><polygon class="cls-2" points="158.07 25.67 160.97 41.79 171.18 39.95 171.75 43.13 157.72 45.66 154.24 26.36 158.07 25.67"/><polygon class="cls-2" points="180.49 26.48 183.44 23.62 188.43 28.85 193.63 23.78 196.48 26.73 191.25 31.73 196.32 36.92 193.37 39.71 188.34 34.55 183.18 39.55 180.32 36.66 185.55 31.64 180.49 26.48"/><path class="cls-2" d="M218.16,29.41c-3.52-.79-6.35,1.28-7.25,5.29s.76,7.1,4.29,7.89,6.35-1.29,7.25-5.29S221.69,30.2,218.16,29.41Zm-3.72,16.52c-5.58-1.25-8.8-6.22-7.48-12.12s6.36-9,11.95-7.74,8.78,6.21,7.46,12.11S220,47.18,214.44,45.93Z"/><path class="cls-2" d="M237.06,42.19c2.72,1.08,4.32.5,5.1-1.47s0-3.53-2.7-4.61l-3.56-1.4-2.4,6.08ZM229.86,50l-3.6-1.42,7.21-18.24,7.26,2.87c4.66,1.84,6.47,5.07,5,8.86s-5,4.94-9.69,3.1l-3.68-1.45Z"/><polygon class="cls-2" points="255.01 62.3 242.23 55.13 251.82 38.03 264.36 45.07 262.78 47.89 253.58 42.73 251.25 46.88 258.47 50.93 256.9 53.73 249.68 49.67 247.15 54.18 256.6 59.48 255.01 62.3"/><polygon class="cls-2" points="271.38 66.39 279.36 56.04 282.22 58.25 270.25 73.78 267.78 71.87 268.29 54.81 259.85 65.76 256.99 63.55 268.96 48.02 272.01 50.38 271.38 66.39"/><path class="cls-2" d="M297.57,73.48c3.78,4.39,3.1,9.2-.42,12.69l-2.56-2.73c2-2.12,2.72-5,.39-7.72s-5.77-2.69-8.91,0-3.62,6.15-1.34,8.79,5.29,2.47,7.69.78l2.32,2.93c-4,3-8.83,2.92-12.61-1.47-3.63-4.23-3.28-10.16,1.3-14.1S293.93,69.26,297.57,73.48Z"/><path class="cls-2" d="M298.68,95.05l3.16,5.07,4.67-6.4-.07-.1Zm12.76-1.77-12.39,17.17-2.2-3.51,3.08-4.24-4.41-7.07-5.12,1-2.08-3.33,20.83-3.65Z"/><polygon class="cls-2" points="318.96 107.39 303.97 113.98 308.14 123.47 305.18 124.77 299.44 111.72 317.39 103.83 318.96 107.39"/><polygon class="cls-2" points="325.63 124.57 309.92 129.21 312.85 139.16 309.74 140.07 305.7 126.39 324.52 120.84 325.63 124.57"/><path class="cls-2" d="M317.09,223.64c1.32-3.12-.12-6.08-3.67-7.58s-6.67-.48-8,2.64.12,6.07,3.67,7.57S315.77,226.75,317.09,223.64Zm-14.62-6.19c2.1-4.95,7.22-7.09,12.43-4.88s7.24,7.37,5.15,12.32-7.2,7.05-12.41,4.85S300.39,222.37,302.47,217.45Z"/><path class="cls-2" d="M302.28,238.92c-1.42,2.35-1.14,3.92.55,5s3.27.58,4.69-1.77l1.87-3.07-5.25-3.18Zm-6.1-7.9,1.88-3.1,15.73,9.54-3.8,6.27c-2.44,4-5.71,5.18-9,3.2s-3.78-5.43-1.34-9.45l1.92-3.18Z"/><polygon class="cls-2" points="280.92 252.47 289.48 241.7 303.89 253.15 295.49 263.71 293.12 261.82 299.27 254.07 295.78 251.29 290.94 257.38 288.59 255.5 293.42 249.42 289.63 246.4 283.3 254.36 280.92 252.47"/><polygon class="cls-2" points="274.76 267.11 283.23 275.98 280.78 278.32 268.07 265.02 270.18 263 285.93 265.88 276.98 256.51 279.43 254.17 292.13 267.47 289.51 269.97 274.76 267.11"/><path class="cls-2" d="M264.73,290.43c-4.57,2.94-9,1.7-11.73-2l2.87-2c1.7,2.16,4.29,3.17,7.12,1.35s3.24-5,1.14-8.26-5.25-4.16-8-2.39-3,4.59-1.72,7l-3,1.77c-2.26-4.1-1.56-8.58,3-11.52,4.4-2.82,9.87-1.72,12.93,3S269.12,287.61,264.73,290.43Z"/><path class="cls-2" d="M244.64,288.68l-5.1,2.32,5.38,5.12.11-.05Zm.09,12.09-14.46-13.63,3.53-1.61,3.57,3.38,7.12-3.25-.27-4.88,3.35-1.53.85,19.83Z"/><polygon class="cls-2" points="230.75 306.06 226.34 291.35 217.03 294.13 216.16 291.23 228.97 287.39 234.24 305.01 230.75 306.06"/><polygon class="cls-2" points="214.09 310.31 211.47 295.18 201.89 296.84 201.37 293.84 214.55 291.56 217.69 309.69 214.09 310.31"/><polygon class="cls-2" points="192.96 310.5 190.01 313.36 185.02 308.13 179.82 313.19 176.96 310.24 182.19 305.25 177.13 300.05 180.08 297.26 185.11 302.42 190.27 297.43 193.13 300.31 187.9 305.34 192.96 310.5"/><path class="cls-2" d="M156.48,306.78c3.31.72,6-1.25,6.76-5s-.76-6.65-4.07-7.37-5.95,1.25-6.77,5S153.17,306.06,156.48,306.78Zm3.37-15.53c5.25,1.15,8.31,5.79,7.1,11.32s-5.91,8.49-11.16,7.35-8.28-5.78-7.07-11.31S154.63,290.12,159.85,291.25Z"/><path class="cls-2" d="M138.71,295c-2.57-1-4.06-.4-4.76,1.46s0,3.32,2.6,4.28l3.36,1.26,2.16-5.73Zm6.64-7.45,3.38,1.28-6.47,17.21-6.86-2.58c-4.39-1.65-6.14-4.65-4.79-8.23s4.64-4.71,9-3.05l3.47,1.3Z"/><polygon class="cls-2" points="121.48 276.54 133.63 282.97 125.03 299.23 113.11 292.92 114.53 290.24 123.27 294.87 125.36 290.92 118.5 287.29 119.91 284.63 126.77 288.26 129.04 283.98 120.06 279.23 121.48 276.54"/><polygon class="cls-2" points="105.96 273.16 98.78 283.11 96.04 281.13 106.79 266.2 109.16 267.91 109.21 283.93 116.79 273.4 119.54 275.39 108.78 290.31 105.85 288.2 105.96 273.16"/><path class="cls-2" d="M81.23,267.57c-3.72-3.94-3.29-8.47-.14-11.89l2.51,2.45c-1.82,2.07-2.33,4.8,0,7.24s5.5,2.27,8.33-.39,3.13-5.91.88-8.29-5-2.09-7.23-.4l-2.29-2.65c3.61-3,8.14-3.1,11.86.84s3.5,9.38-.62,13.26S84.82,271.37,81.23,267.57Z"/><path class="cls-2" d="M79.23,247.47,76,242.89l-4,6.23.07.09Zm-11.86,2.31,10.73-16.7,2.23,3.17-2.66,4.12,4.49,6.4,4.75-1.16,2.11,3L69.71,253.1Z"/><polygon class="cls-2" points="59.6 237.02 73.23 229.97 68.77 221.34 71.47 219.95 77.6 231.82 61.27 240.26 59.6 237.02"/><polygon class="cls-2" points="52.35 221.49 66.74 216.12 63.34 207.01 66.18 205.95 70.86 218.47 53.63 224.91 52.35 221.49"/></svg>