<svg id="Layer_1" data-name="Layer 1" xmlns="http://www.w3.org/2000/svg" viewBox="0 0 370.77 338.06"><defs><style>.cls-1{fill:blue;}.cls-2{fill:#fff;}</style></defs><path class="cls-1" d="M165.93,7.21a13,13,0,0,1,21.45-1A13,13,0,0,0,206.8,7.65a13,13,0,0,1,21,4.32,13,13,0,0,0,18.44,6.28,13,13,0,0,1,19.3,9.41,13,13,0,0,0,16.29,10.66,13,13,0,0,1,16.36,13.92,13,13,0,0,0,13.13,14.38,13,13,0,0,1,12.37,17.55,13,13,0,0,0,9.15,17.19,13,13,0,0,1,7.62,20.08,13,13,0,0,0,4.58,18.92,13,13,0,0,1,2.39,21.34,13,13,0,0,0-.27,19.47,13,13,0,0,1-3,21.27,13,13,0,0,0-5.1,18.79h0a13,13,0,0,1-8.19,19.85A13,13,0,0,0,321.3,258a13,13,0,0,1-12.87,17.2h0a13,13,0,0,0-13.52,14,13,13,0,0,1-16.74,13.45,13,13,0,0,0-16.58,10.21A13,13,0,0,1,242,321.75a13,13,0,0,0-18.6,5.76,13,13,0,0,1-21.15,3.73,13,13,0,0,0-19.45.95,13,13,0,0,1-21.41-1.65,13,13,0,0,0-19.07-3.92A13,13,0,0,1,122,319.7a13,13,0,0,0-17.5-8.53,13,13,0,0,1-18-11.76,13,13,0,0,0-14.82-12.62,13,13,0,0,1-14.48-15.86A13,13,0,0,0,46,255a13,13,0,0,1-10.08-19A13,13,0,0,0,29,217.86,13,13,0,0,1,24,197a13,13,0,0,0-2.16-19.35h0a13,13,0,0,1,.31-21.47,13,13,0,0,0,2.71-19.28,13,13,0,0,1,5.63-20.73,13,13,0,0,0,7.41-18A13,13,0,0,1,48.46,79.48,13,13,0,0,0,60.13,63.89,13,13,0,0,1,75,48.44a13,13,0,0,0,15.18-12.2A13,13,0,0,1,108.51,25a13,13,0,0,0,17.73-8,13,13,0,0,1,20.52-6.35A13,13,0,0,0,165.93,7.21Z"/><path class="cls-2" d="M172.69,338.06c-.36,0-.72,0-1.08,0a14,14,0,0,1-11.06-7,12,12,0,0,0-17.6-3.62,14,14,0,0,1-21.9-7.45,12,12,0,0,0-16.15-7.88,14,14,0,0,1-19.36-12.66,12,12,0,0,0-13.68-11.65,14,14,0,0,1-15.6-17.08A12,12,0,0,0,45.9,256,14,14,0,0,1,35,235.59a12,12,0,0,0-6.38-16.8,14,14,0,0,1-5.44-22.48,12,12,0,0,0-2-17.86,14,14,0,0,1,.32-23.13A12,12,0,0,0,24,137.53a14,14,0,0,1,6.07-22.32A12,12,0,0,0,37,98.59,14,14,0,0,1,48.38,78.48,12,12,0,0,0,59.15,64.09,14,14,0,0,1,75.21,47.45a12,12,0,0,0,14-11.26,14,14,0,0,1,19.7-12.12,12,12,0,0,0,16.37-7.42,14,14,0,0,1,22.09-6.84,12,12,0,0,0,9.55,2.42,12,12,0,0,0,8.15-5.54h0a14,14,0,0,1,23.1-1.13,12,12,0,0,0,8.65,4.72,12,12,0,0,0,9.27-3.34,14,14,0,0,1,22.66,4.65,12,12,0,0,0,17,5.79,14,14,0,0,1,20.79,10.14,12,12,0,0,0,15,9.84,14,14,0,0,1,17.61,15,12,12,0,0,0,11.93,13.27h.41a14,14,0,0,1,13.11,18.9,12,12,0,0,0,8.44,15.87A14,14,0,0,1,341.31,122a12,12,0,0,0,4.23,17.47,14,14,0,0,1,2.58,23,12,12,0,0,0-.26,18,14,14,0,0,1-3.21,22.91,12,12,0,0,0-4.72,17.34,14,14,0,0,1-8.81,21.38,12,12,0,0,0-8.88,15.63,14,14,0,0,1-13.85,18.52,12,12,0,0,0-12.49,12.93,14,14,0,0,1-18,14.49,12,12,0,0,0-15.31,9.42,14,14,0,0,1-21.06,9.55,12,12,0,0,0-17.17,5.32,14,14,0,0,1-22.78,4,12,12,0,0,0-17.95.88A14,14,0,0,1,172.69,338.06Zm-22.54-15a14,14,0,0,1,12.14,7,12,12,0,0,0,19.76,1.52,14,14,0,0,1,20.94-1,12,12,0,0,0,19.53-3.44,14,14,0,0,1,20-6.21,12,12,0,0,0,18.05-8.18,14,14,0,0,1,17.86-11,12,12,0,0,0,15.45-12.42,14,14,0,0,1,14.57-15.09,12,12,0,0,0,11.87-15.87,14,14,0,0,1,10.36-18.23,12,12,0,0,0,7.55-18.33,14,14,0,0,1,5.5-20.24,12,12,0,0,0,2.76-19.63,14,14,0,0,1,.29-21,12,12,0,0,0-2.21-19.7,14,14,0,0,1-4.93-20.38,12,12,0,0,0-7-18.54,14,14,0,0,1-9.84-18.51,12,12,0,0,0-11.43-16.2h-.22a14,14,0,0,1-13.92-15.48,12,12,0,0,0-15.1-12.85A14,14,0,0,1,264.58,27.8a12,12,0,0,0-17.82-8.69,14,14,0,0,1-19.85-6.75,12,12,0,0,0-19.42-4,14,14,0,0,1-10.82,3.91,14,14,0,0,1-10.08-5.52,12,12,0,0,0-19.8,1h0a14,14,0,0,1-20.66,3.64,12,12,0,0,0-18.93,5.86,14,14,0,0,1-19.1,8.67A12,12,0,0,0,91.22,36.28,14,14,0,0,1,74.88,49.42,12,12,0,0,0,61.11,63.68,14,14,0,0,1,48.54,80.47a12,12,0,0,0-9.79,17.24,14,14,0,0,1-8,19.39,12,12,0,0,0-5.2,19.13A14,14,0,0,1,22.65,157a12,12,0,0,0-.28,19.82,14,14,0,0,1,2.34,20.84,12,12,0,0,0,4.66,19.27,14,14,0,0,1,7.44,19.6A12,12,0,0,0,46.12,254a14,14,0,0,1,12.09,17.14A12,12,0,0,0,71.58,285.8a14,14,0,0,1,16,13.59,12,12,0,0,0,16.59,10.85,14,14,0,0,1,18.85,9.2,12,12,0,0,0,18.77,6.38A14,14,0,0,1,150.15,323Z"/><path class="cls-2" d="M2.91,205.78a24,24,0,0,1,.2-9.29,22,22,0,0,1,.62-2.25c.24-.75.52-1.47.83-2.19A21.48,21.48,0,0,1,5.61,190a21,21,0,0,1,1.24-2,23.36,23.36,0,0,1,1.43-1.85c.51-.59,1.05-1.16,1.61-1.7a23.23,23.23,0,0,1,1.76-1.53c.62-.48,1.25-.93,1.91-1.35s1.34-.8,2-1.16,1.41-.67,2.13-1,1.47-.53,2.22-.74,1.51-.38,2.28-.52l318.07-56.08c.76-.13,1.54-.23,2.31-.29s1.56-.08,2.34-.07,1.56.08,2.33.17a22.54,22.54,0,0,1,2.3.39c.76.17,1.52.38,2.26.62a21.31,21.31,0,0,1,2.18.84c.71.31,1.41.66,2.09,1s1.34.8,2,1.24a23.32,23.32,0,0,1,1.84,1.44c.6.51,1.16,1,1.7,1.6s1.05,1.16,1.53,1.77.93,1.25,1.35,1.91a21.31,21.31,0,0,1,1.16,2,22.62,22.62,0,0,1,.95,2.13c.28.73.53,1.47.74,2.22s.38,1.51.52,2.27.23,1.55.29,2.32a22.85,22.85,0,0,1,.06,2.34,23.49,23.49,0,0,1-.55,4.63c-.17.76-.38,1.52-.62,2.26a21.31,21.31,0,0,1-.84,2.18c-.31.71-.66,1.41-1,2.09a22.71,22.71,0,0,1-1.25,2,21.08,21.08,0,0,1-1.43,1.84c-.51.59-1,1.16-1.6,1.7s-1.16,1.05-1.77,1.53-1.25.93-1.91,1.35a21.31,21.31,0,0,1-2,1.16,22.62,22.62,0,0,1-2.13.95c-.73.28-1.47.53-2.22.74s-1.51.38-2.28.52L30.49,225.09a22.62,22.62,0,0,1-2.32.29c-.78.06-1.56.08-2.33.07a23,23,0,0,1-2.34-.17,22.54,22.54,0,0,1-2.3-.39c-.76-.17-1.51-.38-2.25-.62s-1.47-.52-2.18-.83-1.42-.67-2.09-1.05-1.34-.8-2-1.24-1.26-.93-1.85-1.44a23.32,23.32,0,0,1-1.7-1.6c-.53-.57-1-1.15-1.53-1.77s-.93-1.25-1.35-1.9-.8-1.34-1.15-2-.67-1.41-1-2.14-.53-1.46-.74-2.21A22.09,22.09,0,0,1,2.91,205.78Z"/><path class="cls-1" d="M30.57,206.11l-4.66.83-.33,5.48-2.21.39.33-5.48-3.31.58,0-1.89,3.4-.6.32-5.9-3.75.66,0-1.92,3.84-.68.34-5.45,2.2-.39-.33,5.45,4.66-.83.34-5.45,2.23-.39L33.36,196l3.28-.58,0,1.92-3.37.6-.32,5.9,3.71-.66,0,1.89-3.81.68-.33,5.48-2.24.4ZM31,198.3l-4.66.83L26,205l4.66-.82Z"/><path class="cls-1" d="M51.54,203.41a13.1,13.1,0,0,0,.22-6.64,5.9,5.9,0,0,1-5.2,5.12,7,7,0,0,1-5.41-1,6.6,6.6,0,0,1-2.74-4.48,6.86,6.86,0,0,1,1.07-5.33,7.43,7.43,0,0,1,5-2.86,7.17,7.17,0,0,1,6.46,1.66,11.65,11.65,0,0,1,3.36,6.84,13.71,13.71,0,0,1-.67,8A7,7,0,0,1,48,208.85c-3.9.7-7-1.13-8-4.76l2.6-.55c.76,2.23,2.39,3.6,5,3.13A4.67,4.67,0,0,0,51.54,203.41Zm-6.68-13A4.38,4.38,0,0,0,41,195.85c.49,2.77,2.55,4.33,5.57,3.79a4.41,4.41,0,0,0,3.91-5.47C50,191.43,47.79,189.91,44.86,190.43Z"/><path class="cls-1" d="M69.4,196.91l3.4-.61.4,2.24-3.4.6.93,5.3-2.68.47-.93-5.29-10.43,1.84-.46-2.58,7.68-13.71,3.31-.58Zm-10.74,1.9,8.06-1.43L65,187.52Z"/><path class="cls-1" d="M96.33,197.57l.4,2.27L81,202.63l-.34-1.93,9.21-17.77L78,185l-.4-2.27,15.28-2.7.36,2L84,199.74Z"/><path class="cls-1" d="M101.42,197.51c-1.76-.95-2.91-2.86-3.42-5.73l-2.17-12.25,2.71-.48,2.18,12.28c.66,3.79,2.88,5.31,6.32,4.7s5.06-2.81,4.4-6.56l-2.18-12.32,2.67-.47,2.17,12.25c.51,2.87.08,5.06-1.27,6.57a10,10,0,0,1-11.41,2Z"/><path class="cls-1" d="M132.24,193.56l-9.86-8-1.89,2.74,1.26,7.08-2.74.49-3.51-19.85,2.74-.49,1.73,9.8,7.88-11.49,3.24-.58-7,10.24L135.55,193Z"/><path class="cls-1" d="M138.6,190.94c-1.76-1-2.91-2.87-3.42-5.73L133,173l2.71-.48,2.17,12.29c.67,3.78,2.89,5.31,6.32,4.7s5.06-2.81,4.4-6.56l-2.18-12.32,2.68-.48,2.17,12.26c.5,2.87.08,5.06-1.28,6.56a10,10,0,0,1-11.41,2Z"/><path class="cls-1" d="M169.07,182.24l-2.68-15.19,2.55-.45,3.51,19.85-2.18.38-14.35-13.9,2.82,15.94-2.55.45-3.51-19.85,2.84-.5Z"/><path class="cls-1" d="M176.29,185.77l-3.51-19.85,13.55-2.4.4,2.27-10.83,1.92,1.16,6.58,8.51-1.5.4,2.27-8.51,1.5,1.54,8.73Z"/><path class="cls-1" d="M198.51,181.84l-3.11-17.58-7.22,1.28-.4-2.27,17.27-3.06.4,2.27-7.34,1.3,3.11,17.58Z"/><path class="cls-1" d="M210.15,172.31c.79,3.59,3.64,5,6.95,4.42,2.93-.52,4.6-2.14,4.22-4.28-.32-1.8-1.71-2.5-4.35-2.55l-4.08-.06c-3,0-5.33-1.3-5.87-4.35A5.28,5.28,0,0,1,208.2,161a7.82,7.82,0,0,1,4.88-2.55c4.95-.87,8.32,1.29,9.14,5.73l-2.47.57c-.67-3.26-3-4.77-6.26-4.19-2.87.51-4.23,2.17-3.85,4.35.34,1.92,1.79,2.38,4.13,2.39l3.71.06c3.74,0,5.86,1.33,6.42,4.48a5,5,0,0,1-1.39,4.64,9,9,0,0,1-5,2.44,9.47,9.47,0,0,1-6.39-.88,6.76,6.76,0,0,1-3.37-5.09Z"/><path class="cls-1" d="M233.67,175.62l-11.48-18.44,2.81-.49,9.66,15.51.13,0,3.57-17.86,2.77-.49-4.49,21.27Z"/><path class="cls-1" d="M246.17,152.94l3.51,19.85-2.74.49-3.51-19.85Z"/><path class="cls-1" d="M253.47,164.65c.8,3.59,3.65,5,7,4.42,2.93-.52,4.59-2.14,4.21-4.29-.31-1.79-1.7-2.49-4.35-2.54l-4.07-.06c-3,0-5.33-1.3-5.87-4.36a5.24,5.24,0,0,1,1.18-4.53,7.75,7.75,0,0,1,4.88-2.55c4.95-.87,8.32,1.29,9.14,5.73l-2.47.56c-.68-3.25-3-4.76-6.27-4.18-2.86.5-4.23,2.17-3.84,4.35.34,1.92,1.78,2.38,4.13,2.39l3.71.06c3.74,0,5.86,1.33,6.42,4.48a5,5,0,0,1-1.39,4.63,9.07,9.07,0,0,1-5,2.45,9.5,9.5,0,0,1-6.4-.88,6.82,6.82,0,0,1-3.37-5.09Z"/><path class="cls-1" d="M270.44,148.65,274,168.5l-2.74.49-3.51-19.85Z"/><path class="cls-1" d="M293.39,162.5a10.35,10.35,0,0,1-14.18,2.5,11.52,11.52,0,0,1-2.63-14.87,10.36,10.36,0,0,1,14.18-2.51,11.54,11.54,0,0,1,2.63,14.88Zm-4.33-12.89a6.63,6.63,0,0,0-5.49-1.27,6.7,6.7,0,0,0-4.75,3.08,8.52,8.52,0,0,0-.89,6.14,8.43,8.43,0,0,0,2.94,5.46,6.66,6.66,0,0,0,5.52,1.26,6.58,6.58,0,0,0,4.72-3.07,9.85,9.85,0,0,0-2.05-11.6Z"/><path class="cls-1" d="M312.38,156.89l-2.68-15.18,2.55-.45,3.51,19.85-2.18.38-14.35-13.9,2.82,15.94-2.55.45L296,144.13l2.84-.5Z"/><path class="cls-1" d="M333.75,157.92l-14.15,2.51-3.51-19.85L330,138.12l.4,2.27-11.22,2,1.11,6.23,8.91-1.57.4,2.24-8.92,1.57,1.21,6.84,11.5-2Z"/><path class="cls-1" d="M349.75,150.29l-2.68-15.19,2.55-.45,3.51,19.85-2.17.38L336.61,141l2.81,15.94-2.55.45-3.51-19.85,2.84-.5Z"/><path class="cls-1" d="M26.36,226.45h-.55c-.8,0-1.62-.08-2.42-.17s-1.62-.24-2.41-.41-1.58-.4-2.34-.65a24.61,24.61,0,0,1-4.46-2c-.7-.39-1.39-.83-2.06-1.29s-1.31-1-1.92-1.5S9,219.39,8.43,218.8,7.34,217.6,6.84,217a23.07,23.07,0,0,1-1.41-2c-.43-.68-.84-1.39-1.21-2.11s-.7-1.47-1-2.22-.55-1.54-.77-2.31-.4-1.59-.54-2.38h0c-.14-.79-.24-1.61-.3-2.41a22,22,0,0,1-.07-2.44c0-.8.07-1.62.17-2.43s.24-1.61.41-2.4.39-1.57.65-2.34a23.25,23.25,0,0,1,.87-2.28c.32-.74.69-1.48,1.08-2.18s.84-1.4,1.3-2.06,1-1.31,1.49-1.92,1.09-1.21,1.68-1.77a25.92,25.92,0,0,1,3.82-3c.68-.44,1.4-.84,2.12-1.21a23.11,23.11,0,0,1,2.22-1c.76-.29,1.53-.55,2.31-.77a24.1,24.1,0,0,1,2.38-.54l318.06-56.08c.8-.14,1.61-.25,2.42-.31s1.62-.08,2.43-.07,1.63.08,2.43.18a21.48,21.48,0,0,1,2.4.41,24,24,0,0,1,2.35.64,23.07,23.07,0,0,1,2.27.87c.74.33,1.48.69,2.18,1.09a22.24,22.24,0,0,1,2.06,1.3,22.92,22.92,0,0,1,1.92,1.49c.62.53,1.21,1.09,1.77,1.67s1.1,1.21,1.6,1.84,1,1.31,1.41,2,.84,1.39,1.2,2.11a22.23,22.23,0,0,1,1,2.23,23.16,23.16,0,0,1,.77,2.31,25.21,25.21,0,0,1,.85,4.79c.06.81.08,1.63.06,2.43a21.88,21.88,0,0,1-.17,2.43,21.48,21.48,0,0,1-.41,2.4,24,24,0,0,1-.64,2.35,23.07,23.07,0,0,1-.87,2.27c-.33.74-.69,1.47-1.09,2.18a22.24,22.24,0,0,1-1.3,2.06,22.92,22.92,0,0,1-1.49,1.92c-.52.61-1.09,1.21-1.67,1.77a23.43,23.43,0,0,1-1.84,1.6c-.64.49-1.31,1-2,1.4s-1.39.84-2.11,1.21a23.28,23.28,0,0,1-2.23,1,20.85,20.85,0,0,1-2.31.77c-.78.22-1.58.4-2.37.54L30.66,226.08c-.8.14-1.61.24-2.41.3C27.62,226.43,27,226.45,26.36,226.45Zm318.06-103.7c-.58,0-1.17,0-1.74.07a20.72,20.72,0,0,0-2.22.28L22.39,179.18a20.8,20.8,0,0,0-2.18.5,21.91,21.91,0,0,0-2.12.7c-.69.27-1.38.58-2.05.92s-1.32.71-1.94,1.1-1.24.84-1.83,1.3a21.17,21.17,0,0,0-1.69,1.47c-.54.51-1.05,1.06-1.54,1.62S8.1,188,7.67,188.56a22.12,22.12,0,0,0-1.19,1.89,20.89,20.89,0,0,0-1,2,22,22,0,0,0-.8,2.09c-.24.71-.43,1.43-.6,2.16s-.28,1.46-.37,2.2-.14,1.49-.16,2.23a20.8,20.8,0,0,0,.06,2.24c.06.75.15,1.49.28,2.22h0c.13.73.3,1.47.5,2.19a21.1,21.1,0,0,0,.71,2.12A19.52,19.52,0,0,0,6,212a20.83,20.83,0,0,0,1.11,2q.6.94,1.29,1.83a21.7,21.7,0,0,0,1.47,1.69c.51.54,1.06,1.05,1.62,1.54s1.16.94,1.77,1.37a22.82,22.82,0,0,0,8.15,3.58c.72.16,1.46.29,2.2.38s1.5.14,2.24.16,1.49,0,2.23-.06,1.49-.15,2.23-.28L348.38,168c.73-.13,1.46-.29,2.18-.49s1.43-.44,2.13-.71,1.38-.58,2-.91,1.32-.71,1.95-1.11,1.24-.84,1.82-1.3a21.59,21.59,0,0,0,1.69-1.46c.54-.52,1.06-1.07,1.54-1.63a21.52,21.52,0,0,0,1.38-1.77c.42-.61.82-1.25,1.19-1.89s.7-1.32,1-2,.57-1.39.8-2.09.43-1.43.59-2.16.29-1.47.38-2.21a23.83,23.83,0,0,0,.09-4.47,20.09,20.09,0,0,0-.28-2.22c-.13-.73-.29-1.47-.49-2.18a22.15,22.15,0,0,0-.71-2.13c-.27-.69-.58-1.38-.91-2s-.71-1.32-1.11-1.95-.84-1.24-1.29-1.82a23.41,23.41,0,0,0-4.87-4.61c-.61-.42-1.24-.82-1.89-1.19s-1.32-.7-2-1-1.39-.57-2.09-.8-1.44-.43-2.16-.59-1.47-.29-2.21-.38-1.49-.14-2.23-.16Z"/><path class="cls-2" d="M43.75,147.06c-.55,3.57,1.7,6.26,5.76,6.89s7-1.23,7.59-4.79-1.69-6.26-5.76-6.9S44.31,143.49,43.75,147.06Zm16.74,2.63c-.89,5.66-5.64,9.2-11.61,8.26s-9.4-5.76-8.51-11.42S46,137.36,52,138.3,61.37,144.06,60.49,149.69Z"/><path class="cls-2" d="M55.27,127.37c.89-2.79.21-4.34-1.81-5s-3.53.21-4.42,3L47.87,129l6.23,2Zm8.29,6.68-1.18,3.68-18.69-6,2.39-7.45c1.53-4.77,4.63-6.79,8.52-5.54s5.26,4.7,3.73,9.47L57.12,132Z"/><polygon class="cls-2" points="74.14 108.14 67.83 121.39 50.12 112.94 56.31 99.95 59.24 101.35 54.69 110.88 58.99 112.93 62.56 105.45 65.46 106.83 61.89 114.31 66.56 116.53 71.22 106.75 74.14 108.14"/><polygon class="cls-2" points="77.16 91.52 66.3 84.24 68.31 81.25 84.6 92.16 82.87 94.75 65.81 95.38 77.29 103.07 75.28 106.07 58.99 95.15 61.14 91.95 77.16 91.52"/><path class="cls-2" d="M82.45,64.93c4.13-4.06,9-3.72,12.69-.43l-2.56,2.74c-2.25-1.89-5.17-2.38-7.73.14s-2.29,5.92.61,8.88,6.39,3.19,8.88.75,2.11-5.45.26-7.73l2.77-2.51c3.25,3.79,3.5,8.61-.63,12.68-4,3.91-9.92,4-14.16-.35S78.48,68.84,82.45,64.93Z"/><path class="cls-2" d="M103.9,62.4l4.85-3.5-6.7-4.23-.1.07Zm-2.62-12.62,18,11.23-3.36,2.42-4.43-2.8-6.76,4.88,1.29,5-3.18,2.3-5-20.55Z"/><polygon class="cls-2" points="114.89 41.34 122.44 55.87 131.64 51.08 133.13 53.96 120.49 60.54 111.44 43.14 114.89 41.34"/><polygon class="cls-2" points="131.6 33.56 137.26 48.93 146.99 45.35 148.11 48.39 134.72 53.31 127.95 34.91 131.6 33.56"/><polygon class="cls-2" points="153.81 30.47 156.22 27.14 162.05 31.42 166.29 25.53 169.61 27.94 165.33 33.77 171.22 38 168.8 41.26 162.95 37.06 158.74 42.87 155.42 40.53 159.69 34.67 153.81 30.47"/><path class="cls-2" d="M191.43,26.81c-3.61-.17-6,2.37-6.23,6.47s2,6.86,5.6,7,6-2.37,6.22-6.48S195,27,191.43,26.81Zm-.8,16.92c-5.72-.27-9.75-4.6-9.47-10.64s4.7-10,10.43-9.7S201.31,28,201,34,196.33,44,190.63,43.73Z"/><path class="cls-2" d="M212.26,36.12c2.87.58,4.34-.26,4.76-2.33s-.58-3.49-3.45-4.08L209.82,29l-1.31,6.4Zm-5.74,9-3.78-.77,3.92-19.22,7.66,1.57c4.91,1,7.25,3.86,6.43,7.86s-4.1,5.74-9,4.73l-3.88-.79Z"/><polygon class="cls-2" points="233.43 52.8 219.59 47.96 226.07 29.46 239.64 34.21 238.58 37.26 228.62 33.77 227.05 38.27 234.86 41.01 233.8 44.03 225.99 41.3 224.28 46.17 234.5 49.75 233.43 52.8"/><polygon class="cls-2" points="250.26 53.99 256.32 42.41 259.52 44.09 250.42 61.46 247.67 60.01 245.2 43.13 238.79 55.37 235.59 53.69 244.68 36.32 248.1 38.11 250.26 53.99"/><path class="cls-2" d="M277.28,56.43c4.48,3.67,4.66,8.52,1.79,12.56l-3-2.24c1.63-2.44,1.8-5.4-1-7.67s-6.14-1.65-8.76,1.56-2.5,6.69.2,8.9,5.64,1.51,7.71-.57l2.8,2.48c-3.42,3.64-8.19,4.41-12.67.74-4.32-3.53-5-9.44-1.17-14.11S273,52.9,277.28,56.43Z"/><path class="cls-2" d="M282.12,77.47l4,4.45,3.48-7.11-.09-.1Zm12.26-4-9.23,19-2.77-3.07,2.3-4.71-5.57-6.2-4.88,1.84-2.63-2.92,19.89-7.21Z"/><polygon class="cls-2" points="304.24 86.1 290.62 95.2 296.37 103.82 293.68 105.62 285.76 93.76 302.07 82.86 304.24 86.1"/><polygon class="cls-2" points="313.79 101.87 299.12 109.16 303.73 118.45 300.83 119.89 294.48 107.12 312.05 98.38 313.79 101.87"/><path class="cls-2" d="M322.58,200.91c.76-3.3-1.18-6-4.93-6.83s-6.65.69-7.41,4,1.17,6,4.93,6.82S321.82,204.21,322.58,200.91Zm-15.47-3.56c1.2-5.23,5.87-8.23,11.39-7s8.41,6,7.21,11.24-5.87,8.2-11.38,6.93S305.92,202.56,307.11,197.35Z"/><path class="cls-2" d="M310.65,218.53c-1,2.56-.45,4.06,1.4,4.78s3.32,0,4.31-2.56l1.3-3.35L312,215.18Zm-7.38-6.72,1.31-3.38,17.15,6.67-2.66,6.83c-1.7,4.38-4.72,6.09-8.28,4.71s-4.66-4.7-3-9.08l1.34-3.46Z"/><polygon class="cls-2" points="291.97 235.59 298.53 223.5 314.7 232.27 308.27 244.13 305.6 242.68 310.32 233.98 306.39 231.85 302.69 238.68 300.04 237.24 303.75 230.41 299.49 228.1 294.64 237.04 291.97 235.59"/><polygon class="cls-2" points="288.44 251.07 298.32 258.33 296.31 261.07 281.49 250.17 283.22 247.82 299.23 247.92 288.79 240.25 290.79 237.52 305.61 248.41 303.47 251.33 288.44 251.07"/><path class="cls-2" d="M282.61,275.78c-4,3.69-8.52,3.22-11.9,0l2.47-2.48c2.06,1.83,4.78,2.38,7.25.1s2.32-5.49-.31-8.34-5.89-3.19-8.29-1-2.14,5-.47,7.24l-2.67,2.27c-2.94-3.65-3-8.18,1-11.87,3.83-3.55,9.41-3.41,13.25.75S286.45,272.24,282.61,275.78Z"/><path class="cls-2" d="M262.52,277.54l-4.62,3.18,6.2,4.11.09-.07Zm2.19,11.89-16.61-10.9,3.2-2.21,4.1,2.72,6.45-4.44-1.11-4.76,3-2.09,4.29,19.38Z"/><polygon class="cls-2" points="251.86 297.07 244.97 283.35 236.28 287.71 234.92 285 246.87 279 255.12 295.44 251.86 297.07"/><polygon class="cls-2" points="236.2 304.15 230.99 289.7 221.84 293 220.81 290.14 233.39 285.61 239.63 302.91 236.2 304.15"/><polygon class="cls-2" points="215.42 308.01 213.01 311.33 207.18 307.05 202.95 312.94 199.62 310.53 203.9 304.7 198.01 300.47 200.44 297.21 206.28 301.42 210.5 295.6 213.81 297.94 209.53 303.81 215.42 308.01"/><path class="cls-2" d="M178.84,310.68c3.39.13,5.65-2.26,5.8-6.11s-1.91-6.42-5.29-6.56-5.65,2.27-5.8,6.12S175.46,310.54,178.84,310.68Zm.63-15.88c5.37.22,9.18,4.26,9,9.92s-4.35,9.38-9.72,9.17-9.15-4.25-8.92-9.91S174.13,294.59,179.47,294.8Z"/><path class="cls-2" d="M159.3,302.19c-2.69-.51-4.06.3-4.43,2.26s.61,3.26,3.31,3.76l3.52.66,1.13-6Zm5.25-8.49,3.55.66-3.38,18.08-7.2-1.35c-4.62-.87-6.86-3.51-6.15-7.27s3.75-5.45,8.37-4.58l3.64.68Z"/><polygon class="cls-2" points="139.13 286.98 152.21 291.2 146.56 308.71 133.73 304.56 134.66 301.67 144.07 304.71 145.45 300.46 138.06 298.08 138.98 295.22 146.37 297.6 147.86 292.99 138.19 289.87 139.13 286.98"/><polygon class="cls-2" points="123.25 286.34 117.92 297.38 114.87 295.91 122.87 279.35 125.5 280.61 128.33 296.38 133.97 284.7 137.02 286.18 129.02 302.75 125.75 301.17 123.25 286.34"/><path class="cls-2" d="M97.94,285.14c-4.35-3.25-4.72-7.78-2.21-11.69l2.89,2c-1.43,2.36-1.46,5.14,1.23,7.14s5.82,1.28,8.14-1.83,2.05-6.37-.57-8.32-5.34-1.18-7.19.86l-2.72-2.21c3-3.55,7.48-4.47,11.83-1.23,4.18,3.13,5.07,8.62,1.69,13.16S102.12,288.25,97.94,285.14Z"/><path class="cls-2" d="M92.48,265.69l-4-4-2.9,6.84.08.08ZM81.2,270l7.66-18.31,2.75,2.74L89.7,259l5.54,5.52,4.47-2,2.61,2.6-18.25,7.77Z"/><polygon class="cls-2" points="71.32 258.8 83.53 249.5 77.63 241.77 80.05 239.93 88.15 250.56 73.53 261.7 71.32 258.8"/><polygon class="cls-2" points="61.49 244.76 74.73 236.98 69.8 228.6 72.41 227.06 79.19 238.58 63.34 247.91 61.49 244.76"/></svg>