<svg id="Ebene_1" data-name="Ebene 1" xmlns="http://www.w3.org/2000/svg" viewBox="0 0 2317.85 690.91"><path d="M227.88,679c-30.5,0-59.25-5.22-85.44-15.5a195.46,195.46,0,0,1-69.3-46.2C53.46,597,37.79,571.84,26.58,542.55S9.71,479,9.71,440.61v-14.7c0-37.79,5.68-71.78,16.87-101s26.88-54.44,46.56-74.75a201.09,201.09,0,0,1,69.25-46.64,222.07,222.07,0,0,1,83.65-16c31.93,0,61.33,7.16,87.38,21.28,22.42,12.16,45.35,27.6,61.63,57.8H459.2l-1.38,397.34H377.25v-75h-2.91c-15,30-35.75,52.65-61.77,67.35C285.89,671.35,257.39,679,227.88,679ZM226,197.52a212,212,0,0,0-79.9,15.25A191.1,191.1,0,0,0,80.32,257.1c-18.73,19.34-33.67,43.34-44.4,71.36s-16.21,60.88-16.21,97.45v14.7c0,37.19,5.45,70.28,16.21,98.36s25.67,52,44.4,71.36a185.6,185.6,0,0,0,65.78,43.85c25,9.83,52.53,14.81,81.78,14.81,27.77,0,54.61-7.2,79.78-21.41,25-14.13,44.88-36.27,59-65.81l1.36-2.83h19.17v75h60.6l1.31-377.34H369l-1.39-2.72c-15.11-29.58-37.25-44.54-58.92-56.29C284.08,204.27,256.29,197.52,226,197.52ZM235.23,611c-44.74,0-81.67-15.21-109.77-45.22s-42.24-72-42.24-125.17V425.9c0-25,3.81-48.25,11.32-69.22s18.24-39.25,31.8-54.06a145.25,145.25,0,0,1,48-34.73c18.35-8.22,38.82-12.38,60.85-12.38a144.2,144.2,0,0,1,60.43,12.85A146.93,146.93,0,0,1,344.16,304c13.55,15.13,24.23,33.46,31.76,54.49s11.32,44.25,11.32,69.22v11c0,25.59-3.8,49.18-11.32,70.14s-18,39.32-31.26,54.44a136.85,136.85,0,0,1-48.15,35.28C277.9,606.83,257.28,611,235.23,611Zm0-345.48c-20.61,0-39.7,3.87-56.76,11.51a135.3,135.3,0,0,0-44.76,32.35C121.06,323.2,111,340.25,104,360.05s-10.73,42-10.73,65.85v14.7c0,50.53,13.3,90.34,39.54,118.33S193.37,601,235.23,601c20.65,0,39.91-3.87,57.25-11.52a126.91,126.91,0,0,0,44.66-32.72c12.39-14.17,22.28-31.4,29.37-51.22s10.73-42.34,10.73-66.77v-11c0-23.81-3.61-46-10.73-65.85s-17.12-37-29.8-51.19a136.7,136.7,0,0,0-45.21-33.24A134.28,134.28,0,0,0,235.23,265.51Z"/><path d="M2286.09,663.86H2125.8c-22.13,0-40.49-7.31-54.57-21.72s-21.18-32.85-21.18-54.95V10.67h81.67V204.75h176.42v71.51H2131.72V565.14c0,15.6,6.11,22.56,19.81,22.56h134.56Zm-226-643.19V587.19c0,19.67,6,35.36,18.33,48s27.81,18.71,47.42,18.71h150.29V597.7H2151.53c-19.22,0-29.81-11.56-29.81-32.56V266.26h176.42V214.75H2121.72V20.67Z"/><path d="M775.66,679.79a215.33,215.33,0,0,1-46-5.17,185.63,185.63,0,0,1-44.82-16,193.69,193.69,0,0,1-39.11-26.38,141,141,0,0,1-29-35h-3.13V664H532V10.72h81.61V273.18h3.16a163.18,163.18,0,0,1,66.69-62.34c28.75-14.68,60.4-22.12,94.09-22.12a212.6,212.6,0,0,1,81.78,16,206.31,206.31,0,0,1,68.21,46.1c19.65,20,35.47,44.93,47,74.2s17.33,62.91,17.33,100.07v18.36c0,37.79-5.67,71.75-16.86,100.95s-26.87,54.26-46.55,74.24a198,198,0,0,1-69.21,45.67A227.28,227.28,0,0,1,775.66,679.79ZM603.57,587.16h18.94l1.44,2.55a131.76,131.76,0,0,0,28.29,34.94,184,184,0,0,0,37.1,25,176.31,176.31,0,0,0,42.41,15.18,205.73,205.73,0,0,0,43.91,4.93A217.48,217.48,0,0,0,855.54,655a188.07,188.07,0,0,0,65.74-43.38c18.71-19,33.63-42.82,44.34-70.81s16.2-60.81,16.2-97.37V425.07c0-35.9-5.6-68.34-16.63-96.41s-26.12-51.84-44.82-70.84a196.2,196.2,0,0,0-64.92-43.88,202.54,202.54,0,0,0-78-15.22c-32.09,0-62.22,7.07-89.54,21a153.5,153.5,0,0,0-64.05,60.94l-1.44,2.5H603.56V20.72H542V654h61.62ZM761,611.86a154,154,0,0,1-61.66-12.34,149.29,149.29,0,0,1-49.86-35.14C635.28,549.27,624,531,615.84,510s-12.28-44.6-12.28-70.21v-11c0-25,4.13-48.3,12.28-69.29s19.44-39.3,33.61-54.41a155.27,155.27,0,0,1,49.8-35.57A149.47,149.47,0,0,1,761,256.66,157.76,157.76,0,0,1,823.07,269a151.81,151.81,0,0,1,50.31,34.66,158.55,158.55,0,0,1,33.18,53.07c7.84,20.4,11.81,43.4,11.81,68.36v18.37c0,25.57-4,49-11.8,69.71s-19.05,38.64-33.23,53.14A149.76,149.76,0,0,1,823.49,600C804.63,607.87,783.59,611.86,761,611.86Zm0-345.2a139.47,139.47,0,0,0-57.62,11.95,145.62,145.62,0,0,0-46.61,33.29c-13.28,14.17-23.91,31.39-31.58,51.18s-11.6,41.93-11.6,65.68v11c0,24.37,3.91,46.77,11.6,66.59s18.29,37,31.58,51.18a139.39,139.39,0,0,0,46.54,32.81A144.14,144.14,0,0,0,761,601.86c21.29,0,41-3.73,58.67-11.09a139.74,139.74,0,0,0,46.55-31.47c13.21-13.5,23.65-30.21,31-49.69s11.15-41.81,11.15-66.16V425.08c0-23.73-3.75-45.52-11.14-64.77a148.69,148.69,0,0,0-31.07-49.74,141.75,141.75,0,0,0-47-32.38A147.77,147.77,0,0,0,761,266.66Z"/><path d="M1274.76,679.76a250.79,250.79,0,0,1-89-15.93,217.84,217.84,0,0,1-74.18-46.49c-21.2-20.24-38.41-45.49-51.16-75.05s-19.22-64-19.22-102.46v-11c0-37.84,6.47-72,19.22-101.56s30.12-54.94,51.61-75.51a219.91,219.91,0,0,1,74.65-46.95,251.34,251.34,0,0,1,176.06,0,219.91,219.91,0,0,1,74.65,46.95c21.49,20.54,38.85,45.95,51.61,75.51s19.23,63.75,19.23,101.56v11c0,38.42-6.47,72.9-19.23,102.46s-30,54.79-51.15,75.05a217.29,217.29,0,0,1-74.66,46.5A252.2,252.2,0,0,1,1274.76,679.76Zm0-480.88a238.23,238.23,0,0,0-84.49,15.28A209.68,209.68,0,0,0,1119,259c-20.53,19.63-37.13,43.94-49.35,72.25s-18.4,61.13-18.4,97.59v11c0,37.08,6.19,70.22,18.4,98.5s28.67,52.47,48.89,71.78a208,208,0,0,0,70.8,44.37,245.1,245.1,0,0,0,170.4,0A207.25,207.25,0,0,0,1431,610.11c20.22-19.32,36.67-43.48,48.88-71.78s18.41-61.45,18.41-98.5v-11c0-36.44-6.2-69.28-18.41-97.6S1451,278.59,1430.53,259a209.87,209.87,0,0,0-71.27-44.82A238.24,238.24,0,0,0,1274.76,198.88Zm0,413c-22.61,0-43.77-4-62.91-11.85A147.18,147.18,0,0,1,1161,565.34c-14.49-15.1-26-33.42-34.09-54.42s-12.27-44.87-12.27-71.09v-11c0-25,4.13-48.3,12.27-69.27s19.61-39.32,34.09-54.42a157.48,157.48,0,0,1,51.16-35.54,159.31,159.31,0,0,1,125.13,0,157.93,157.93,0,0,1,51.17,35.54c14.45,15.09,25.92,33.4,34.09,54.42s12.27,44.32,12.27,69.27v11c0,26.17-4.13,50.09-12.27,71.09s-19.63,39.33-34.09,54.42A147.56,147.56,0,0,1,1337.69,600C1318.52,607.86,1297.35,611.85,1274.76,611.85Zm0-345.06a145.83,145.83,0,0,0-58.57,12,147.58,147.58,0,0,0-47.94,33.29c-13.57,14.15-24.33,31.34-32,51.12s-11.59,41.9-11.59,65.65v11c0,25,3.9,47.67,11.59,67.47s18.42,37,32,51.12a137.24,137.24,0,0,0,47.38,32.33c17.93,7.36,37.82,11.1,59.12,11.1s41.18-3.74,59.14-11.1a137.75,137.75,0,0,0,47.39-32.33c13.54-14.14,24.3-31.34,32-51.12s11.59-42.54,11.59-67.47v-11c0-23.71-3.9-45.79-11.59-65.65s-18.46-37-32-51.12a148,148,0,0,0-47.94-33.29A145.86,145.86,0,0,0,1274.77,266.79Z"/><path d="M1755.18,680.24c-4.18,0-8.4-.12-12.7-.37-58.39-3.38-99.45-19.49-129.21-50.7-32-33.59-48.24-84.36-48.24-150.92V205.62h81.66V463.55c0,46.27,10.39,81.32,30.88,104.16,20.37,22.68,48.48,34.18,83.57,34.18,41.74,0,74.92-14.39,98.62-42.77,23.92-28.65,36-67.61,36-115.79v-238h81.67V599.18l-84.56-.06C1867,651.77,1818.47,680.24,1755.18,680.24ZM1575,215.62V478.25c0,63.9,15.3,112.36,45.48,144,27.9,29.26,66.85,44.4,122.55,47.62,32.16,1.85,60.54-3.5,84.37-15.93,25.25-13.16,44.71-34,57.83-62l1.35-2.88,80.87.06V215.36h-61.67v228c0,50.59-12.91,91.7-38.38,122.2-25.69,30.76-61.45,46.36-106.29,46.36-38.05,0-68.67-12.62-91-37.5s-33.44-62-33.44-110.84V215.62Z"/></svg>