<svg id="Ebene_1" data-name="Ebene 1" xmlns="http://www.w3.org/2000/svg" viewBox="0 0 2317.85 690.91"><path d="M382.24,583.94h-11q-22.05,46-61.11,68t-82.23,22q-45,0-83.61-15.16a189.48,189.48,0,0,1-67.54-45q-28.94-29.85-45.48-73T14.71,440.61v-14.7q0-56,16.54-99.24t45.48-73.05a195,195,0,0,1,67.54-45.48A215.88,215.88,0,0,1,226,192.52q46.88,0,85,20.67c25.41,13.79,46.28,29.63,61,58.41h82.16l-1.34,387.34H382.25Zm-147,22q32.16,0,59.27-11.94a131.38,131.38,0,0,0,46.4-34q19.29-22,30.32-52.84t11-68.45v-11q0-36.75-11-67.54t-30.78-52.83a141.24,141.24,0,0,0-46.86-34.46,138.62,138.62,0,0,0-58.35-12.4q-32.16,0-58.8,11.94A139.76,139.76,0,0,0,130,306q-19.76,21.6-30.77,52.38t-11,67.53v14.7q0,78.12,40.89,121.75T235.23,606Z"/><path d="M2055.05,15.67h71.67V209.75h176.42v61.51H2126.72V565.14q0,27.55,24.81,27.56h129.56v66.16H2125.8q-31.25,0-51-20.22t-19.76-51.45V15.67Z"/><path d="M608.56,659H537V15.72h71.61V278.18h11a157.77,157.77,0,0,1,66.1-62.89q42.23-21.56,91.82-21.57a206.6,206.6,0,0,1,79.87,15.6,200.46,200.46,0,0,1,66.56,45q28.92,29.38,45.91,72.52t17,98.24v18.36q0,56-16.53,99.16t-45.44,72.52a192.1,192.1,0,0,1-67.48,44.53,221.46,221.46,0,0,1-81.71,15.15,209.83,209.83,0,0,1-45-5,180.12,180.12,0,0,1-43.61-15.61A188.36,188.36,0,0,1,649,628.43a136.17,136.17,0,0,1-29.37-36.27h-11V659ZM761,606.86q33,0,60.6-11.47a144.32,144.32,0,0,0,48.2-32.59q20.65-21.12,32.13-51.41t11.47-67.94V425.08q0-36.7-11.47-66.56a153,153,0,0,0-32.13-51.41,146.1,146.1,0,0,0-48.66-33.51A151.94,151.94,0,0,0,761,261.66a143.9,143.9,0,0,0-59.67,12.39,149.57,149.57,0,0,0-48.2,34.43q-20.67,22-32.6,52.8t-11.94,67.48v11q0,37.67,11.94,68.4T653.1,561a143.75,143.75,0,0,0,48.2,34Q728.83,606.87,761,606.86Z"/><path d="M1503.28,439.83q0,56.91-18.82,100.48t-50,73.42a211.46,211.46,0,0,1-73,45.43,250.14,250.14,0,0,1-173.91,0,212.15,212.15,0,0,1-72.5-45.43q-31.21-29.81-50-73.42t-18.81-100.48v-11q0-56,18.81-99.58t50.48-73.87a213.56,213.56,0,0,1,73-45.89,246.31,246.31,0,0,1,172.53,0,213.91,213.91,0,0,1,73,45.89q31.66,30.27,50.47,73.87t18.82,99.58Zm-228.52,167q33,0,61-11.47a141.83,141.83,0,0,0,49.1-33.5q21.1-22,33-52.77t11.93-69.28v-11q0-36.7-11.93-67.46t-33-52.77a152.12,152.12,0,0,0-49.56-34.41,154.22,154.22,0,0,0-121.13,0,151.86,151.86,0,0,0-49.55,34.41q-21.12,22-33,52.77t-11.93,67.46v11q0,38.54,11.93,69.28t33,52.77a141.64,141.64,0,0,0,49.1,33.5Q1241.71,606.86,1274.76,606.85Z"/><path d="M1900.81,210.36h71.67V594.18l-82.7-.06c-28.16,60-82.92,84.46-147,80.76-52.59-3-94.64-16.4-125.88-49.16S1570,543.78,1570,478.25V210.62h71.66V463.55q0,71.65,32.16,107.5t87.29,35.84q65.25,0,102.45-44.57t37.22-119Z"/></svg>