<svg id="Ebene_1" data-name="Ebene 1" xmlns="http://www.w3.org/2000/svg" viewBox="0 0 2676.98 681.71"><path d="M785.58,660H635.45L471.29,189.35h96.1L708.55,616.57h3.92L853.64,189.35h96.1Zm-143-10H778.48L935.66,199.35H860.87L719.7,626.57H701.33L560.16,199.35H485.37Z"/><path d="M236.57,672.66c-33,0-63.77-5.85-91.5-17.39a207.26,207.26,0,0,1-72-49.42c-19.95-21.18-35.75-46.78-47-76.07s-16.86-62-16.86-97.34V410.38c0-32.39,5.84-63,17.37-91A217.53,217.53,0,0,1,75,246.49a227.92,227.92,0,0,1,72.79-47.92c27.75-11.53,58.23-17.38,90.6-17.38,38,0,71.34,7.13,99.19,21.21s50.81,31.59,68.6,52.19a207.2,207.2,0,0,1,39.54,67.79c8.41,24.31,12.67,47.12,12.67,67.79V454H91.15c2.62,41.49,16.27,75.41,40.61,100.88,25.23,26.41,61.11,39.8,106.65,39.8,20.85,0,39.21-2.4,54.58-7.13s28.53-11.24,39.34-19.42a106.12,106.12,0,0,0,26.33-28.51,167.12,167.12,0,0,0,16.51-35.25l1.49-4.47,77.53,21-1.5,4.93c-13.1,43.07-37.65,78.7-72.94,105.88S296.22,672.66,236.57,672.66Zm1.85-481.47c-31,0-60.24,5.59-86.76,16.61A217.82,217.82,0,0,0,82,253.61a207.5,207.5,0,0,0-46.2,69.55c-11,26.79-16.62,56.14-16.62,87.22v22.06c0,34.14,5.45,65.68,16.2,93.76S61.28,578.76,80.34,599a197.12,197.12,0,0,0,68.57,47c26.51,11,56,16.62,87.66,16.62,57.4,0,103.51-13.1,137.08-38.94a196.82,196.82,0,0,0,67.92-95.94L383.1,512a177.45,177.45,0,0,1-15.94,32.89,115.6,115.6,0,0,1-28.8,31.21c-11.74,8.89-26,16-42.43,21s-35.67,7.57-57.52,7.57c-48.38,0-86.69-14.43-113.88-42.9C98.39,534.41,83.8,498.17,81.13,454h-.25v-5l5-.11V444H448.42V390.17c0-19.55-4.08-41.26-12.13-64.52a197.47,197.47,0,0,0-37.64-64.53c-16.94-19.61-39-36.36-65.55-49.8S274.8,191.19,238.42,191.19ZM387.08,387.81H82l.75-5.66a156,156,0,0,1,16.61-52.68,147.72,147.72,0,0,1,80.8-70.34,167.77,167.77,0,0,1,58.23-10A157,157,0,0,1,292,258.66a154.82,154.82,0,0,1,46.52,26.59,136.3,136.3,0,0,1,33.39,42c8.54,16.46,13.52,35.06,14.8,55.28Zm-293.54-10h282.8a125.61,125.61,0,0,0-44.2-84.89,144.62,144.62,0,0,0-43.52-24.86,146.76,146.76,0,0,0-50.21-8.89,158.13,158.13,0,0,0-54.78,9.34,137.69,137.69,0,0,0-75.41,65.64A144.69,144.69,0,0,0,93.54,377.81Z"/><path d="M1190,672.66c-33,0-63.77-5.85-91.51-17.39a207.31,207.31,0,0,1-72-49.42c-20-21.18-35.76-46.78-47-76.07s-16.87-62-16.87-97.34V410.38c0-32.39,5.85-63,17.38-91a217.51,217.51,0,0,1,48.43-72.86,228,228,0,0,1,72.8-47.92c27.75-11.53,58.23-17.38,90.59-17.38,38,0,71.34,7.13,99.2,21.21s50.81,31.59,68.6,52.19a207.34,207.34,0,0,1,39.53,67.79c8.41,24.31,12.68,47.12,12.68,67.79V454H1044.55c2.62,41.49,16.27,75.41,40.61,100.88,25.23,26.41,61.11,39.8,106.65,39.8,20.85,0,39.21-2.4,54.58-7.13s28.53-11.24,39.34-19.42a106.12,106.12,0,0,0,26.33-28.51,167.08,167.08,0,0,0,16.5-35.25l1.5-4.47,77.53,21-1.5,4.93c-13.11,43.08-37.66,78.7-72.95,105.88S1249.62,672.66,1190,672.66Zm1.84-481.47c-31,0-60.23,5.59-86.75,16.61a217.82,217.82,0,0,0-69.62,45.81,207.5,207.5,0,0,0-46.2,69.55c-11,26.79-16.63,56.14-16.63,87.22v22.06c0,34.14,5.46,65.68,16.21,93.76s25.86,52.56,44.91,72.79a197.31,197.31,0,0,0,68.57,47c26.52,11,56,16.62,87.67,16.62,57.39,0,103.51-13.1,137.07-38.94A196.78,196.78,0,0,0,1395,527.78L1336.5,512a176.87,176.87,0,0,1-16,32.89,115.72,115.72,0,0,1-28.79,31.21c-11.74,8.89-26,16-42.43,21s-35.68,7.57-57.52,7.57c-48.38,0-86.7-14.43-113.88-42.9-26.14-27.35-40.73-63.59-43.4-107.78h-.25v-5l5-.11V444h362.54V390.17c0-19.55-4.08-41.26-12.13-64.52A197.32,197.32,0,0,0,1352,261.12c-16.93-19.61-39-36.36-65.55-49.8S1228.2,191.19,1191.81,191.19Zm148.67,196.62H1035.41l.75-5.66a156.22,156.22,0,0,1,16.62-52.68,147.74,147.74,0,0,1,80.79-70.34,167.82,167.82,0,0,1,58.24-10,156.91,156.91,0,0,1,53.62,9.49A154.75,154.75,0,0,1,1292,285.25a136.3,136.3,0,0,1,33.39,42c8.54,16.46,13.52,35.06,14.79,55.28Zm-293.55-10h282.8a125.54,125.54,0,0,0-44.19-84.89A144.62,144.62,0,0,0,1242,268.06a146.76,146.76,0,0,0-50.21-8.89,158.13,158.13,0,0,0-54.78,9.34,137.69,137.69,0,0,0-75.41,65.64A145,145,0,0,0,1046.93,377.81Z"/><path d="M2482.07,674.88h-.43c-36.12,0-67.6-5-93.57-14.75s-48-22.85-65.29-39a163.25,163.25,0,0,1-39.42-55.28,184.69,184.69,0,0,1-15.08-62.15l-.25-4.17,78-18.87.5,5.8c2.9,33.59,16,60.91,38.83,81.2s54.08,30.66,92.65,30.72h.33c32.56,0,59-6.38,78.68-18.95,19.27-12.33,28.66-29.21,28.7-51.59,0-24.09-9.06-40.78-27.79-51-19.54-10.69-52.07-17.68-96.68-20.77-53.66-3.82-95.52-16.63-124.42-38.07-29.49-21.84-44.42-54-44.36-95.46V317c0-22.31,4.93-42.23,14.58-59.21A130.88,130.88,0,0,1,2346,215.18a177.62,177.62,0,0,1,54.64-25.58,233.37,233.37,0,0,1,62.86-8.41h.34c30.59.05,57.87,4.38,81.08,12.88s43,19.71,58.73,33.29a146.32,146.32,0,0,1,36.71,47.36,181.84,181.84,0,0,1,16.53,53.18l.64,4.5-78.3,18.93-.59-5.7c-2.89-28-14.2-50.2-33.61-65.9-19.59-15.82-45.7-23.87-77.6-23.92h-.23a161.48,161.48,0,0,0-36,4,104.55,104.55,0,0,0-30.41,11.84,63.78,63.78,0,0,0-20.59,19.22c-5,7.41-7.5,16.25-7.52,26.27h0c0,20.51,8.39,35.74,25.74,46.56,18,11.24,51.81,18.8,100.61,22.48,54.27,4.45,96.28,17.73,124.9,39.48,29.15,22.17,43.9,54.74,43.84,96.81V528c0,22.83-4.75,43.61-14,61.78a138.4,138.4,0,0,1-38.36,46.38c-16.12,12.62-36,22.36-59,28.94C2533.71,671.59,2508.7,674.88,2482.07,674.88ZM2278.56,507.32a176.19,176.19,0,0,0,14,54.63,153.26,153.26,0,0,0,37,51.91c16.35,15.2,37.21,27.62,62,36.9s55.15,14.07,90.07,14.12h.42c25.7,0,49.78-3.16,71.59-9.4s40.46-15.38,55.56-27.2a128.43,128.43,0,0,0,35.61-43c8.55-16.76,12.9-36,12.93-57.26v-5.53c.06-38.78-13.36-68.66-39.89-88.84-27.08-20.57-67.33-33.18-119.63-37.47-51.12-3.86-85.51-11.7-105.13-24-20.23-12.62-30.47-31.14-30.44-55.05,0-12,3.12-22.75,9.21-31.82a73.53,73.53,0,0,1,23.77-22.24,114.49,114.49,0,0,1,33.3-13,172.05,172.05,0,0,1,38.27-4.23h.25c34.23.05,62.45,8.85,83.86,26.15,20.22,16.34,32.51,38.86,36.58,67l58.4-14.12a174.68,174.68,0,0,0-14.94-45.77,136.3,136.3,0,0,0-34.23-44.12c-14.85-12.8-33.57-23.39-55.64-31.48s-48.23-12.23-77.65-12.27h-.33a223.57,223.57,0,0,0-60.17,8,168.06,168.06,0,0,0-51.58,24.12,121.06,121.06,0,0,0-36,39.41c-8.79,15.46-13.25,33.72-13.28,54.28v5.53c-.05,38.69,13.13,67.29,40.31,87.42,27.36,20.29,67.45,32.44,119.17,36.12,46.7,3.24,79.67,10.42,100.78,22,21.93,12,33,32.13,33,59.82,0,25.7-11.25,45.89-33.32,60-21.28,13.62-49.56,20.53-84.06,20.53H2478c-41.07-.06-74.47-11.25-99.27-33.24-23.51-20.87-37.48-48.45-41.56-82.05Z"/><path d="M1549.74,660h-81.66V263.29l84.55.06c27.64-56.11,80.93-84.77,150.44-80.75,58.39,3.38,99.45,19.49,129.21,50.7,32,33.59,48.25,84.37,48.25,150.92V659.75h-81.67V398.92c0-46.27-10.39-81.32-30.88-104.16-20.36-22.68-48.48-34.18-83.57-34.18-41.74,0-74.92,14.39-98.61,42.77-23.93,28.65-36.06,67.61-36.06,115.79Zm-71.66-10h61.66V419.14c0-50.58,12.91-91.7,38.38-122.2,25.69-30.76,61.45-46.36,106.29-46.36,38,0,68.67,12.62,91,37.5,22.19,24.74,33.44,62,33.44,110.84V649.75h61.67V384.22c0-63.9-15.31-112.35-45.48-144-27.91-29.26-66.85-44.39-122.55-47.62-32.17-1.85-60.55,3.5-84.38,15.93-25.25,13.16-44.71,34-57.82,62l-1.35,2.88-80.87-.06Z"/><path d="M2192.85,660H2032.57c-22.14,0-40.5-7.31-54.57-21.73s-21.18-32.84-21.18-54.95V6.83h81.67V200.9h176.42v71.52H2038.49V561.29c0,15.61,6.11,22.57,19.81,22.57h134.55Zm-226-643.19V583.34c0,19.68,6,35.36,18.33,48S2013,650,2032.57,650h150.28V593.86H2058.3c-19.23,0-29.81-11.57-29.81-32.57V262.42h176.42V210.9H2028.49V16.83Z"/></svg>