<svg id="Ebene_1" data-name="Ebene 1" xmlns="http://www.w3.org/2000/svg" viewBox="0 0 2676.98 681.71"><path d="M782,655H639L478.33,194.35h85.44L704.94,621.57h11.14L857.25,194.35H942.7Z"/><path d="M85.88,449q2.76,68,42.27,109.34t110.26,41.35q32.14,0,56-7.35t40.89-20.21a110.51,110.51,0,0,0,27.56-29.87,171.37,171.37,0,0,0,17-36.29l68,18.38q-19.29,63.4-71.22,103.37t-140.12,40q-48.7,0-89.58-17A201.19,201.19,0,0,1,76.7,602.42Q47.29,571.19,30.75,528T14.22,432.44V410.38q0-47.78,17-89.12t47.32-71.21a221.68,221.68,0,0,1,71.2-46.86q40.88-17,88.68-17,56,0,96.93,20.67t67.08,51A201.59,201.59,0,0,1,441,324q12.39,35.83,12.4,66.16V449H85.88Zm152.53-194.8a162.28,162.28,0,0,0-56.51,9.65,142.77,142.77,0,0,0-78.1,68,150.34,150.34,0,0,0-16.08,51h294q-1.86-29.4-14.25-53.29a130.48,130.48,0,0,0-32.16-40.43,148.77,148.77,0,0,0-45-25.73A151.27,151.27,0,0,0,238.41,254.17Z"/><path d="M1039.28,449q2.76,68,42.27,109.34t110.26,41.35q32.14,0,56-7.35t40.88-20.21a110.55,110.55,0,0,0,27.57-29.87,171.86,171.86,0,0,0,17-36.29l68,18.38q-19.3,63.4-71.22,103.37t-140.12,40q-48.71,0-89.59-17a201.38,201.38,0,0,1-70.29-48.24q-29.41-31.23-45.94-74.43t-16.54-95.55V410.38q0-47.78,17-89.12t47.32-71.21a221.84,221.84,0,0,1,71.21-46.86q40.88-17,88.67-17,56,0,96.94,20.67t67.08,51A201.76,201.76,0,0,1,1394.42,324q12.39,35.83,12.4,66.16V449H1039.28Zm152.53-194.8a162.2,162.2,0,0,0-56.51,9.65,142.77,142.77,0,0,0-78.1,68,150.34,150.34,0,0,0-16.08,51h294q-1.85-29.4-14.24-53.29a130.63,130.63,0,0,0-32.16-40.43,148.77,148.77,0,0,0-45-25.73A151.27,151.27,0,0,0,1191.81,254.17Z"/><path d="M2367.67,317.12q0,33.22,28.09,50.81t102.89,23.22q80.29,6.57,122.24,38.47t41.87,92.82V528q0,33.22-13.47,59.52a132.8,132.8,0,0,1-37,44.71q-23.55,18.43-57.26,28.08t-73.39,9.59q-53.55-.07-91.83-14.43t-63.64-37.93A157.75,157.75,0,0,1,2288,563.93a179.28,179.28,0,0,1-14.68-60.48l68.33-16.52q4.53,52.62,40.49,84.52t96,32q50.74.06,81.71-19.74t31-55.8q0-38.76-30.39-55.42t-98.73-21.37q-79.4-5.66-121.79-37.09t-42.34-91.44V317q0-32.29,13.93-56.74a125.57,125.57,0,0,1,37.43-41A171.92,171.92,0,0,1,2402,194.42a227.75,227.75,0,0,1,61.86-8.23q45.21.08,79.36,12.58t57.19,32.38a140.86,140.86,0,0,1,35.47,45.74A176.51,176.51,0,0,1,2652,328.6l-68.33,16.52q-4.58-44.31-35.44-69.27t-80.73-25a166.34,166.34,0,0,0-37.39,4.11,109,109,0,0,0-31.86,12.42A68.37,68.37,0,0,0,2376,288.08Q2367.69,300.49,2367.67,317.12Z"/><path d="M1544.74,655h-71.66V268.3l82.69.05c28.17-60,82.93-84.46,147-80.76,52.59,3,94.64,16.4,125.89,49.16s46.86,81.94,46.86,147.47V654.75h-71.67V398.92q0-71.66-32.16-107.5t-87.29-35.83q-65.25,0-102.45,44.56t-37.22,119Z"/><path d="M1961.82,11.83h71.67V205.9h176.42v61.52H2033.49V561.29q0,27.57,24.81,27.57h129.55V655H2032.57q-31.24,0-51-20.22t-19.75-51.46V11.83Z"/></svg>