<svg id="Ebene_1" data-name="Ebene 1" xmlns="http://www.w3.org/2000/svg" viewBox="0 0 3209.59 859.8"><path d="M396.35,849H94.57V772.87H370.63c13.7,0,19.81-7,19.81-22.57V595.41h-3.05c-15,27-35.42,47.66-60.78,61.42-26,14.12-54.82,21.28-85.53,21.28a243.65,243.65,0,0,1-88.17-16A218.86,218.86,0,0,1,80,616.08c-20.92-20-37.7-45.13-49.87-74.76s-18.29-63.74-18.29-101.6V425c0-37.26,6.31-71.15,18.76-100.71s29.21-54.85,49.8-75.13a211.12,211.12,0,0,1,72.46-46.59,238.58,238.58,0,0,1,86.33-16c33.8,0,63.86,7.49,89.34,22.27,28,16.25,45.77,33.78,58.86,58.2H472.1V772.35c0,22.07-7.12,40.56-21.18,54.95S418.46,849,396.35,849ZM104.57,839H396.35c19.59,0,35.1-6.12,47.42-18.71s18.33-28.32,18.33-48V277.12H381.35L380,274.38c-12.29-24-29.16-41-56.41-56.82-23.93-13.88-52.3-20.92-84.32-20.92a228.76,228.76,0,0,0-82.73,15.28,201.2,201.2,0,0,0-69,44.38c-19.65,19.36-35.67,43.54-47.6,71.89s-18,60.91-18,96.83v14.7c0,36.55,5.9,69.45,17.54,97.8S67,589.84,87,608.85a208.78,208.78,0,0,0,69.56,44,233.79,233.79,0,0,0,84.57,15.29c29,0,56.2-6.76,80.77-20.07s44-33.43,58.15-60l1.41-2.65h19V750.3c0,21-10.59,32.57-29.81,32.57H104.57ZM242.91,610.11c-22.64,0-43.69-4-62.57-11.87A146.88,146.88,0,0,1,130.41,564C116.22,549.2,105,531.16,97.19,510.4S85.38,466,85.38,439.72V425c0-25,4-48.19,11.81-68.85a162.47,162.47,0,0,1,33.18-54A148.41,148.41,0,0,1,180.76,267a157.81,157.81,0,0,1,62.15-12.35,150.61,150.61,0,0,1,61.29,12.83,154.19,154.19,0,0,1,50.32,35.61c14.15,15.1,25.46,33.42,33.63,54.45s12.29,44.36,12.29,69.34v11c0,25.59-4.14,49.23-12.29,70.26s-19.48,39.35-33.63,54.44a149.23,149.23,0,0,1-49.9,35.17A154.12,154.12,0,0,1,242.91,610.11Zm0-345.49a147.82,147.82,0,0,0-58.23,11.55,138.44,138.44,0,0,0-47,32.82,152.57,152.57,0,0,0-31.13,50.72c-7.41,19.53-11.16,41.5-11.16,65.31v14.7c0,25,3.75,47.62,11.16,67.14s17.84,36.39,31.09,50.23A136.71,136.71,0,0,0,184.19,589c17.65,7.37,37.41,11.1,58.72,11.1a144.29,144.29,0,0,0,57.74-11.53,139.68,139.68,0,0,0,46.58-32.84c13.27-14.15,23.9-31.39,31.6-51.22s11.61-42.29,11.61-66.64v-11c0-23.74-3.91-45.86-11.61-65.73s-18.34-37.06-31.6-51.22a144.24,144.24,0,0,0-47.08-33.3A140.5,140.5,0,0,0,242.91,264.62Z"/><path d="M763.18,679.41c-33,0-63.77-5.85-91.51-17.38a207.12,207.12,0,0,1-72-49.43c-19.95-21.18-35.75-46.77-47-76.07s-16.87-62-16.87-97.34V417.13c0-32.39,5.85-63,17.38-91a217.43,217.43,0,0,1,48.44-72.87,227.62,227.62,0,0,1,72.79-47.91c27.75-11.54,58.23-17.38,90.59-17.38,38,0,71.34,7.13,99.2,21.21s50.81,31.58,68.6,52.18a207.49,207.49,0,0,1,39.53,67.8c8.41,24.31,12.68,47.12,12.68,67.79v63.81H617.76c2.61,41.49,16.27,75.41,40.61,100.88C683.6,588,719.48,601.41,765,601.41c20.86,0,39.23-2.39,54.57-7.12s28.54-11.24,39.35-19.43a105.82,105.82,0,0,0,26.33-28.51,166.77,166.77,0,0,0,16.5-35.24l1.5-4.48,77.53,21-1.5,4.94c-13.11,43.07-37.65,78.69-72.95,105.87S822.83,679.41,763.18,679.41ZM765,197.94c-31,0-60.23,5.59-86.75,16.61a217.82,217.82,0,0,0-69.62,45.81,207.5,207.5,0,0,0-46.2,69.55c-11,26.8-16.63,56.15-16.63,87.22v22.06c0,34.13,5.46,65.68,16.21,93.77s25.86,52.56,44.91,72.79a197.11,197.11,0,0,0,68.57,47c26.52,11,56,16.62,87.67,16.62,57.39,0,103.51-13.1,137.07-38.93a196.87,196.87,0,0,0,67.92-95.94l-58.46-15.81a177.54,177.54,0,0,1-15.94,32.9A116.05,116.05,0,0,1,865,582.84c-11.74,8.89-26,15.95-42.43,21s-35.66,7.57-57.52,7.57c-48.38,0-86.7-14.43-113.88-42.89s-41.77-66.22-43.65-112.59l-.21-5.2H975V396.92c0-19.55-4.08-41.26-12.13-64.52a197.32,197.32,0,0,0-37.65-64.53c-16.93-19.61-39-36.36-65.55-49.8S801.41,197.94,765,197.94ZM913.69,394.57H608.62l.75-5.66A156.22,156.22,0,0,1,626,336.23a147.74,147.74,0,0,1,80.79-70.34A167.82,167.82,0,0,1,765,255.94a157,157,0,0,1,53.62,9.48A154.54,154.54,0,0,1,865.17,292a136.18,136.18,0,0,1,33.39,42c8.54,16.46,13.52,35.06,14.79,55.28Zm-293.55-10h282.8a125.54,125.54,0,0,0-44.19-84.89,144.62,144.62,0,0,0-43.52-24.86A146.83,146.83,0,0,0,765,265.94a158,158,0,0,0-54.78,9.33,137.69,137.69,0,0,0-75.41,65.64A145,145,0,0,0,620.14,384.57Z"/><path d="M2048.52,679.41c-33,0-63.76-5.85-91.5-17.38a206.93,206.93,0,0,1-72-49.43c-20-21.18-35.76-46.77-47-76.07s-16.87-62-16.87-97.34V417.13c0-32.39,5.85-63,17.38-91A217.4,217.4,0,0,1,1887,253.23a227.66,227.66,0,0,1,72.8-47.91c27.74-11.54,58.22-17.38,90.59-17.38,38,0,71.34,7.13,99.19,21.21s50.81,31.58,68.61,52.18a207.49,207.49,0,0,1,39.53,67.8c8.41,24.31,12.68,47.12,12.68,67.79v63.81H1903.1c2.62,41.49,16.27,75.41,40.61,100.88,25.23,26.41,61.11,39.8,106.65,39.8,20.87,0,39.23-2.39,54.58-7.12s28.53-11.25,39.34-19.43a106.17,106.17,0,0,0,26.34-28.51,167.5,167.5,0,0,0,16.5-35.24l1.49-4.48,77.54,21-1.51,4.94c-13.11,43.08-37.65,78.7-72.94,105.87S2108.18,679.41,2048.52,679.41Zm1.85-481.47c-31,0-60.23,5.59-86.75,16.61A217.71,217.71,0,0,0,1894,260.36a207.52,207.52,0,0,0-46.21,69.55c-11,26.8-16.62,56.14-16.62,87.22v22.06c0,34.13,5.45,65.68,16.2,93.77s25.87,52.56,44.92,72.79a197,197,0,0,0,68.57,47c26.51,11,56,16.62,87.66,16.62,57.4,0,103.52-13.1,137.08-38.93a197,197,0,0,0,67.92-95.94l-58.47-15.81a176.29,176.29,0,0,1-15.94,32.9,116,116,0,0,1-28.79,31.21c-11.75,8.89-26,15.95-42.44,21s-35.65,7.57-57.52,7.57c-48.37,0-86.69-14.43-113.87-42.89s-41.77-66.22-43.65-112.59l-.21-5.2h367.75V396.92c0-19.55-4.09-41.26-12.13-64.52a197.5,197.5,0,0,0-37.65-64.53c-16.94-19.61-39-36.36-65.55-49.8S2086.75,197.94,2050.37,197.94ZM2199,394.57H1894l.75-5.66a156,156,0,0,1,16.61-52.68,147.72,147.72,0,0,1,80.8-70.34,167.76,167.76,0,0,1,58.23-9.95,157,157,0,0,1,53.63,9.48A154.61,154.61,0,0,1,2150.51,292a136.3,136.3,0,0,1,33.39,42c8.55,16.46,13.52,35.06,14.8,55.28Zm-293.54-10h282.8a125.54,125.54,0,0,0-44.19-84.89,144.67,144.67,0,0,0-43.53-24.86,146.74,146.74,0,0,0-50.21-8.88,158.13,158.13,0,0,0-54.78,9.33,137.69,137.69,0,0,0-75.41,65.64A144.69,144.69,0,0,0,1905.49,384.57Z"/><path d="M2866.93,664h-81.67V267.32l84.56.06c27.63-56.12,80.94-84.77,150.44-80.75,58.39,3.37,99.45,19.49,129.21,50.7,32,33.59,48.24,84.36,48.24,150.92V663.78h-81.66V403c0-46.27-10.39-81.32-30.89-104.16-20.36-22.68-48.47-34.18-83.56-34.18-41.74,0-74.92,14.39-98.62,42.77-23.92,28.65-36.05,67.61-36.05,115.79Zm-71.67-10h61.67V423.17c0-50.59,12.91-91.7,38.38-122.2,25.69-30.76,61.45-46.36,106.29-46.36,38.05,0,68.67,12.62,91,37.5,22.19,24.73,33.44,62,33.44,110.84V653.78h61.66V388.25c0-63.9-15.3-112.36-45.48-144-27.9-29.27-66.85-44.4-122.55-47.62-32.16-1.86-60.55,3.5-84.37,15.92-25.25,13.17-44.71,34-57.83,62l-1.35,2.88-80.87-.05Z"/><path d="M2431.8,664.05h-81.25L2350,266.86h84.54c12.92-26.72,30.28-46.69,50.35-57.86,22.09-12.31,47.64-18.55,75.94-18.55,47.14,0,85.78,15.68,114.82,46.61s44.51,76.11,46.38,134.65l.14,4.46-85.49,12.52v-5.79c0-40.61-9.66-70.13-28.72-87.75s-43.07-26.69-71-26.69c-18.08,0-33.82,3.51-46.8,10.43a94.85,94.85,0,0,0-32.75,28.82C2448.62,320,2442.09,334.6,2438,351A222.71,222.71,0,0,0,2431.7,405Zm-71.27-10h61.27L2421.7,405a232.53,232.53,0,0,1,6.58-56.35c4.41-17.66,11.47-33.38,21-46.71a104.65,104.65,0,0,1,36.17-31.83c14.44-7.71,31.77-11.61,51.51-11.61,30.56,0,56.74,9.87,77.82,29.34,20.24,18.72,30.95,48.75,31.87,89.32l65.24-9.54c-2.41-53.88-17-95.47-43.5-123.68-27.08-28.83-63.26-43.45-107.53-43.45-26.58,0-50.49,5.82-71.08,17.29-18.92,10.53-35.35,30-47.51,56.22l-1.34,2.9h-80.88Z"/><path d="M1756.28,664H1596c-22.14,0-40.5-7.31-54.57-21.72s-21.18-32.85-21.18-55V10.78h81.67V204.86h176.42v71.51H1601.91V565.25c0,15.6,6.11,22.56,19.81,22.56h134.56Zm-226-643.19V587.29c0,19.68,6,35.37,18.33,48S1576.38,654,1596,654h150.29V597.81H1621.72c-19.22,0-29.81-11.56-29.81-32.56V266.37h176.42V214.86H1591.91V20.78Z"/><path d="M1255.05,681.19h-.41c-36.12-.05-67.61-5-93.58-14.75s-48-22.85-65.29-39a163.29,163.29,0,0,1-39.42-55.28,184.93,184.93,0,0,1-15.08-62.15l-.24-4.17,78-18.87.5,5.8c2.9,33.59,16,60.91,38.84,81.2s54.09,30.67,92.64,30.72h.35c32.55,0,59-6.37,78.66-19,19.28-12.33,28.67-29.21,28.7-51.59,0-24.09-9-40.78-27.78-51-19.54-10.69-52.07-17.68-96.68-20.77-53.67-3.82-95.52-16.62-124.43-38.06-29.49-21.85-44.41-54-44.35-95.47v-5.53c0-22.31,4.94-42.23,14.59-59.21a130.84,130.84,0,0,1,38.9-42.64,177.59,177.59,0,0,1,54.64-25.57,233.39,233.39,0,0,1,62.87-8.41h.34c30.6,0,57.87,4.37,81.08,12.87s43,19.71,58.73,33.3A146.49,146.49,0,0,1,1413.38,281a182.29,182.29,0,0,1,16.53,53.17l.64,4.5-78.31,18.93-.59-5.69c-2.89-28-14.19-50.21-33.6-65.9-19.6-15.83-45.71-23.88-77.6-23.92a162.12,162.12,0,0,0-36.27,4,104.66,104.66,0,0,0-30.4,11.84,63.84,63.84,0,0,0-20.6,19.23c-5,7.54-7.49,16.13-7.51,26.27,0,20.5,8.39,35.73,25.73,46.56,18,11.23,51.81,18.79,100.62,22.47,54.27,4.45,96.28,17.74,124.89,39.48,29.16,22.18,43.91,54.75,43.85,96.81v5.54c0,22.83-4.74,43.62-14,61.79a138.49,138.49,0,0,1-38.36,46.37c-16.12,12.62-36,22.36-59,28.95C1306.71,677.9,1281.69,681.19,1255.05,681.19Zm-203.5-167.56a176.32,176.32,0,0,0,14,54.64,153.36,153.36,0,0,0,37,51.9c16.36,15.21,37.21,27.62,62,36.91s55.16,14.06,90.08,14.11h.4c25.71,0,49.8-3.16,71.61-9.4s40.45-15.38,55.56-27.2a128.55,128.55,0,0,0,35.61-43.05c8.55-16.75,12.89-36,12.92-57.25v-5.54c0-38.77-13.37-68.66-39.9-88.84-27.07-20.57-67.32-33.18-119.63-37.47-51.11-3.85-85.51-11.69-105.13-24-20.22-12.63-30.46-31.15-30.43-55.06h0c0-12,3.11-22.71,9.2-31.81a73.76,73.76,0,0,1,23.77-22.25,114.43,114.43,0,0,1,33.31-13,170.32,170.32,0,0,1,38.51-4.23c34.24,0,62.46,8.84,83.87,26.14,20.22,16.35,32.5,38.86,36.57,67l58.4-14.12a174.64,174.64,0,0,0-14.93-45.77,136.44,136.44,0,0,0-34.24-44.12c-14.84-12.8-33.56-23.39-55.64-31.48s-48.22-12.22-77.64-12.26h-.33a223.12,223.12,0,0,0-60.17,8,167.59,167.59,0,0,0-51.58,24.12,121,121,0,0,0-36,39.4c-8.78,15.46-13.25,33.72-13.28,54.28v5.54c-.06,38.68,13.13,67.28,40.31,87.41,27.35,20.29,67.44,32.45,119.17,36.13,46.7,3.23,79.67,10.42,100.78,22,21.92,12,33,32.12,33,59.81,0,25.7-11.24,45.89-33.31,60-21.28,13.61-49.56,20.52-84.06,20.52H1251c-41.07,0-74.47-11.24-99.27-33.24-23.52-20.86-37.48-48.44-41.56-82.05Z"/></svg>