<svg id="Ebene_1" data-name="Ebene 1" xmlns="http://www.w3.org/2000/svg" viewBox="0 0 3209.59 859.8"><path d="M395.44,590.41h-11q-22.05,41.34-60.18,62t-83.15,20.68q-46,0-86.37-15.62a213.11,213.11,0,0,1-71.22-45q-30.79-29.4-48.7-73.05t-17.91-99.7V425q0-55.12,18.37-98.77T84,252.74a205.29,205.29,0,0,1,70.75-45.49,232.79,232.79,0,0,1,84.53-15.61q49.62,0,86.83,21.59c24.81,14.4,44.25,31.31,58.35,58.88H467.1V772.35q0,31.23-19.75,51.45t-51,20.22H99.57V777.87H370.63q24.81,0,24.81-27.57Zm-152.53,14.7q32.14,0,59.73-12a143.65,143.65,0,0,0,48.23-34q20.69-22,32.62-52.83t11.95-68.45v-11q0-36.74-11.95-67.53t-32.62-52.84A148.33,148.33,0,0,0,302.17,272a144.86,144.86,0,0,0-59.26-12.41,152.12,152.12,0,0,0-60.19,11.95,142.84,142.84,0,0,0-48.7,34,156.92,156.92,0,0,0-32.16,52.37Q90.37,388.27,90.38,425v14.7q0,38.59,11.48,68.92T134,560.55a141.34,141.34,0,0,0,48.24,33.08Q209.85,605.12,242.91,605.11Z"/><path d="M612.49,455.73q2.75,68,42.26,109.34T765,606.41q32.15,0,56.05-7.34T862,578.85A110.51,110.51,0,0,0,889.52,549a171.94,171.94,0,0,0,17-36.3l68,18.38q-19.31,63.4-71.22,103.37t-140.12,40q-48.72,0-89.59-17a201.22,201.22,0,0,1-70.29-48.23Q573.89,578,557.36,534.75t-16.54-95.56V417.14q0-47.77,17-89.14t47.32-71.2a221.67,221.67,0,0,1,71.21-46.86q40.88-17,88.67-17,56,0,96.94,20.67t67.08,51a201.76,201.76,0,0,1,38.59,66.16Q980,366.6,980,396.92v58.81ZM765,260.94a162.2,162.2,0,0,0-56.51,9.64,142.77,142.77,0,0,0-78.1,68,150.34,150.34,0,0,0-16.08,51h294q-1.85-29.4-14.24-53.29A130.63,130.63,0,0,0,862,295.85a148.77,148.77,0,0,0-45-25.73A151.35,151.35,0,0,0,765,260.94Z"/><path d="M1897.84,455.73q2.75,68,42.26,109.34t110.26,41.34q32.16,0,56-7.34t40.89-20.22A110.31,110.31,0,0,0,2174.86,549a171,171,0,0,0,17-36.3l68,18.38q-19.31,63.4-71.21,103.37t-140.13,40q-48.7,0-89.58-17a201,201,0,0,1-70.29-48.23q-29.42-31.23-45.94-74.43t-16.54-95.56V417.14q0-47.77,17-89.14t47.32-71.2a221.56,221.56,0,0,1,71.21-46.86q40.88-17,88.67-17,56,0,96.94,20.67t67.07,51A201.41,201.41,0,0,1,2253,330.76q12.41,35.83,12.41,66.16v58.81Zm152.52-194.79a162.18,162.18,0,0,0-56.5,9.64,142.74,142.74,0,0,0-78.11,68,150.11,150.11,0,0,0-16.07,51h294q-1.86-29.4-14.24-53.29a130.63,130.63,0,0,0-32.16-40.43,148.89,148.89,0,0,0-45-25.73A151.36,151.36,0,0,0,2050.36,260.94Z"/><path d="M2861.93,659h-71.67V272.32l82.7.06c28.16-60,82.92-84.46,147-80.76,52.59,3,94.64,16.4,125.88,49.16s46.86,81.93,46.86,147.47V658.78h-71.66V403q0-71.67-32.16-107.5t-87.29-35.84q-65.26,0-102.46,44.56t-37.21,119Z"/><path d="M2355,271.86h82.69c11.64-25.11,28.17-46.55,49.62-58.49s45.94-17.92,73.51-17.92q68.91,0,111.18,45t45,131.39l-75.35,11q0-63.39-30.32-91.42t-74.43-28q-28.49,0-49.16,11a99.18,99.18,0,0,0-34.45,30.32q-13.79,19.29-20.22,45a226.77,226.77,0,0,0-6.44,55.14l.11,254.08h-71.26Z"/><path d="M1525.24,15.78h71.67V209.86h176.42v61.51H1596.91V565.25q0,27.56,24.81,27.56h129.56V659H1596q-31.24,0-51-20.22t-19.76-51.45V15.78Z"/><path d="M1140.67,323.43q0,33.24,28.09,50.81t102.88,23.22q80.29,6.59,122.25,38.47t41.87,92.83v5.53q0,33.24-13.47,59.52a132.81,132.81,0,0,1-37,44.72Q1361.74,657,1328,666.6t-73.39,9.59q-53.54-.08-91.82-14.43t-63.64-37.93A157.48,157.48,0,0,1,1061,570.24a179.06,179.06,0,0,1-14.69-60.47l68.33-16.52q4.54,52.62,40.5,84.51t96,32q50.76.06,81.72-19.73t31-55.8q.06-38.78-30.38-55.43t-98.74-21.37q-79.38-5.64-121.79-37.09t-42.33-91.44v-5.54q0-32.29,13.93-56.74a125.37,125.37,0,0,1,37.44-41A171.71,171.71,0,0,1,1175,200.73a227.29,227.29,0,0,1,61.85-8.22q45.23.06,79.37,12.57t57.18,32.38a140.69,140.69,0,0,1,35.47,45.74A176.5,176.5,0,0,1,1425,334.92l-68.33,16.52q-4.58-44.32-35.44-69.28t-80.73-25a165.7,165.7,0,0,0-37.39,4.1,108.93,108.93,0,0,0-31.86,12.42A68.48,68.48,0,0,0,1149,294.39Q1140.71,306.84,1140.67,323.43Z"/></svg>