<svg id="Ebene_1" data-name="Ebene 1" xmlns="http://www.w3.org/2000/svg" viewBox="0 0 2218.18 691.59"><path d="M710.06,679.68c-33,0-63.76-5.85-91.5-17.39a207,207,0,0,1-72-49.42c-20-21.18-35.76-46.78-47-76.07s-16.87-62-16.87-97.34V417.4c0-32.39,5.85-63,17.38-91a217.45,217.45,0,0,1,48.43-72.87,227.86,227.86,0,0,1,72.8-47.92c27.74-11.53,58.22-17.38,90.59-17.38,38,0,71.34,7.14,99.19,21.21S861.91,241,879.71,261.6a207.34,207.34,0,0,1,39.53,67.79c8.41,24.32,12.68,47.13,12.68,67.8V461H564.64c2.62,41.5,16.27,75.42,40.62,100.89,25.22,26.41,61.1,39.8,106.64,39.8,20.87,0,39.23-2.4,54.58-7.13s28.53-11.24,39.34-19.42a106,106,0,0,0,26.34-28.51,167.58,167.58,0,0,0,16.5-35.25l1.49-4.47,77.54,21-1.51,4.93c-13.1,43.08-37.65,78.7-72.94,105.88S769.72,679.68,710.06,679.68Zm1.85-481.48c-31,0-60.23,5.59-86.75,16.62a217.71,217.71,0,0,0-69.62,45.81,207.48,207.48,0,0,0-46.21,69.54c-11,26.8-16.62,56.15-16.62,87.23v22.06c0,34.13,5.45,65.68,16.2,93.76s25.86,52.56,44.92,72.79a197,197,0,0,0,68.57,47c26.51,11,56,16.62,87.66,16.62,57.4,0,103.52-13.1,137.08-38.94a196.82,196.82,0,0,0,67.92-95.94L856.59,519a176.2,176.2,0,0,1-15.94,32.89,116,116,0,0,1-28.79,31.21c-11.75,8.89-26,16-42.44,21s-35.65,7.57-57.52,7.57c-48.38,0-86.69-14.43-113.88-42.89s-41.76-66.22-43.64-112.6l-.21-5.2H921.92v-53.8c0-19.56-4.09-41.27-12.13-64.53a197.46,197.46,0,0,0-37.65-64.52c-16.94-19.61-39-36.37-65.55-49.8S748.29,198.2,711.91,198.2ZM860.57,394.83H555.51l.75-5.66a156,156,0,0,1,16.61-52.67,147.68,147.68,0,0,1,80.8-70.35,168,168,0,0,1,58.23-9.95,157,157,0,0,1,53.63,9.48,154.85,154.85,0,0,1,46.52,26.6,136.07,136.07,0,0,1,33.39,42C854,350.7,859,369.3,860.24,389.52ZM567,384.83h282.8a125.54,125.54,0,0,0-44.19-84.89,144.89,144.89,0,0,0-43.53-24.86,147,147,0,0,0-50.21-8.88,157.9,157.9,0,0,0-54.78,9.34,137.69,137.69,0,0,0-75.41,65.64A144.72,144.72,0,0,0,567,384.83Z"/><path d="M1980.76,679.68c-33,0-63.76-5.85-91.5-17.39a207.17,207.17,0,0,1-72-49.42c-20-21.18-35.75-46.78-47-76.07s-16.86-62-16.86-97.34V417.4c0-32.39,5.84-63,17.37-91a217.47,217.47,0,0,1,48.44-72.87A227.92,227.92,0,0,1,1892,205.58c27.75-11.53,58.23-17.38,90.6-17.38,38,0,71.34,7.14,99.19,21.21s50.81,31.59,68.6,52.19a207.34,207.34,0,0,1,39.53,67.79c8.42,24.32,12.68,47.13,12.68,67.8V461H1835.34c2.62,41.5,16.27,75.42,40.61,100.89,25.23,26.41,61.11,39.8,106.65,39.8,20.87,0,39.23-2.4,54.58-7.13s28.53-11.24,39.34-19.42a106.12,106.12,0,0,0,26.33-28.51,167.38,167.38,0,0,0,16.51-35.25l1.49-4.47,77.53,21-1.5,4.93c-13.11,43.08-37.66,78.7-73,105.88S2040.41,679.68,1980.76,679.68Zm1.85-481.48c-31,0-60.24,5.59-86.76,16.62a217.82,217.82,0,0,0-69.62,45.81,207.45,207.45,0,0,0-46.2,69.54c-11,26.8-16.62,56.15-16.62,87.23v22.06c0,34.13,5.45,65.68,16.2,93.76s25.86,52.56,44.92,72.79a197.09,197.09,0,0,0,68.56,47c26.52,11,56,16.62,87.67,16.62,57.4,0,103.51-13.1,137.07-38.94a196.73,196.73,0,0,0,67.92-95.94L2127.29,519a177.45,177.45,0,0,1-15.94,32.89,115.89,115.89,0,0,1-28.8,31.21c-11.74,8.89-26,16-42.43,21s-35.66,7.57-57.52,7.57c-48.38,0-86.69-14.43-113.88-42.89s-41.77-66.22-43.64-112.6l-.21-5.2h367.74v-53.8c0-19.56-4.08-41.27-12.13-64.53a197.28,197.28,0,0,0-37.65-64.52c-16.93-19.61-39-36.37-65.54-49.8S2019,198.2,1982.61,198.2Zm148.66,196.63H1826.21l.75-5.66a156,156,0,0,1,16.61-52.67,147.68,147.68,0,0,1,80.8-70.35,168,168,0,0,1,58.23-9.95,157,157,0,0,1,53.63,9.48,154.85,154.85,0,0,1,46.52,26.6,136.07,136.07,0,0,1,33.39,42c8.54,16.46,13.52,35.06,14.8,55.28Zm-293.54-10h282.8a125.61,125.61,0,0,0-44.2-84.89,144.83,144.83,0,0,0-43.52-24.86,147,147,0,0,0-50.21-8.88,157.9,157.9,0,0,0-54.78,9.34,137.69,137.69,0,0,0-75.41,65.64A144.72,144.72,0,0,0,1837.73,384.83Z"/><path d="M1185.84,680.56c-4.18,0-8.4-.13-12.7-.38-58.39-3.37-99.44-19.48-129.21-50.7-32-33.58-48.24-84.36-48.24-150.92V203h81.67V463.86c0,46.28,10.39,81.32,30.88,104.17,20.36,22.67,48.47,34.17,83.57,34.17,41.73,0,74.91-14.39,98.61-42.77,23.92-28.65,36-67.6,36-115.78V202.78h81.67V599.49l-84.55-.06C1297.66,652.08,1249.13,680.55,1185.84,680.56ZM1005.69,213V478.56c0,63.9,15.3,112.36,45.48,144,27.91,29.27,66.85,44.4,122.55,47.62,32.16,1.86,60.55-3.5,84.38-15.92,25.25-13.17,44.7-34,57.82-62l1.35-2.88,80.87.06V212.78h-61.67V443.65c0,50.58-12.91,91.69-38.38,122.19-25.68,30.76-61.45,46.36-106.28,46.36-38,0-68.68-12.61-91-37.49-22.18-24.74-33.43-62-33.43-110.85V213Z"/><path d="M1721.64,664.23H1561.35c-22.14,0-40.5-7.31-54.57-21.72s-21.18-32.84-21.18-55V16h5V11h76.66V205.12h176.42v71.52H1567.27V565.51c0,15.61,6.11,22.56,19.81,22.56h134.56ZM1495.6,21V587.56c0,19.67,6,35.36,18.33,48s27.81,18.71,47.42,18.71h150.29V598.07H1587.08c-19.22,0-29.81-11.56-29.81-32.56V266.64h176.41V215.12H1557.26V21Z"/><path d="M428.15,664.44H346.46V405.57c0-46.3-10.4-81.36-30.9-104.2S267.07,267.18,232,267.18c-41.75,0-74.94,14.4-98.65,42.79-23.93,28.66-36.07,67.63-36.07,115.82V664.44H15.56V11H97.25V284.74h2.91c14.33-28.76,34.37-52,59.61-69,26.15-17.64,58.48-26.59,96.09-26.59,50.82,0,92.71,17.08,124.51,50.75s47.78,84.4,47.78,151Zm-71.69-10h61.69V390.85c0-63.92-15.16-112.4-45-144.09s-69.28-47.61-117.24-47.61c-35.58,0-66,8.37-90.49,24.88s-43.95,39.42-57.58,67.87l-1.36,2.84H87.25V21H25.56V654.44H87.25V425.79c0-50.6,12.92-91.72,38.39-122.23,25.7-30.78,61.48-46.38,106.33-46.38,38.06,0,68.69,12.62,91,37.51,22.19,24.73,33.45,62,33.45,110.88Z"/></svg>