<svg id="Ebene_1" data-name="Ebene 1" xmlns="http://www.w3.org/2000/svg" viewBox="0 0 2218.18 691.59"><path d="M559.38,456q2.75,68,42.26,109.34T711.9,606.68q32.16,0,56.05-7.35t40.89-20.21a110.35,110.35,0,0,0,27.56-29.87,170.88,170.88,0,0,0,17-36.29l68,18.38q-19.29,63.39-71.21,103.37t-140.13,40q-48.7,0-89.58-17a201.19,201.19,0,0,1-70.29-48.24Q520.78,578.21,504.25,535t-16.54-95.55V417.4q0-47.77,17-89.13T552,257.06a221.73,221.73,0,0,1,71.21-46.86q40.88-17,88.67-17,56,0,96.94,20.68t67.07,51A201.21,201.21,0,0,1,914.51,331q12.4,35.84,12.41,66.16V456ZM711.9,261.2a162.18,162.18,0,0,0-56.5,9.65,142.64,142.64,0,0,0-78.11,68,150.12,150.12,0,0,0-16.07,51h294q-1.86-29.38-14.24-53.29a130.75,130.75,0,0,0-32.16-40.43,149.31,149.31,0,0,0-45-25.73A151.36,151.36,0,0,0,711.9,261.2Z"/><path d="M1830.07,456q2.76,68,42.27,109.34t110.26,41.35q32.14,0,56.05-7.35t40.89-20.21a110.51,110.51,0,0,0,27.56-29.87,171.86,171.86,0,0,0,17-36.29l68,18.38q-19.3,63.39-71.22,103.37t-140.12,40q-48.71,0-89.58-17a201.19,201.19,0,0,1-70.29-48.24q-29.43-31.23-46-74.43t-16.53-95.55V417.4q0-47.77,17-89.13t47.32-71.21a221.68,221.68,0,0,1,71.2-46.86q40.88-17,88.68-17,56,0,96.93,20.68t67.08,51A201.38,201.38,0,0,1,2185.21,331q12.39,35.84,12.4,66.16V456ZM1982.6,261.2a162.28,162.28,0,0,0-56.51,9.65,142.67,142.67,0,0,0-78.1,68,150.36,150.36,0,0,0-16.08,51h294q-1.86-29.38-14.25-53.29a130.6,130.6,0,0,0-32.16-40.43,149.19,149.19,0,0,0-45-25.73A151.26,151.26,0,0,0,1982.6,261.2Z"/><path d="M1331.47,207.78h71.67V594.49l-82.7-.06c-28.16,60-82.92,84.47-147,80.76-52.59-3-94.64-16.39-125.88-49.16s-46.86-81.93-46.86-147.47V208h71.67V463.86q0,71.67,32.15,107.51t87.3,35.83q65.25,0,102.45-44.56t37.21-119Z"/><path d="M1490.6,16h71.66V210.12h176.43v61.52H1562.27V565.51q0,27.57,24.81,27.56h129.56v66.16H1561.35q-31.24,0-51-20.21t-19.76-51.46V16Z"/><path d="M92.25,659.44H20.56V16H92.25V289.74h11q21.14-44.12,59.29-69.85t93.29-25.74q74.46,0,120.87,49.18t46.42,147.52V659.44H351.46V405.57q0-71.7-32.17-107.54T232,262.18q-65.28,0-102.49,44.58t-37.23,119V659.44Z"/></svg>