<svg id="Ebene_1" data-name="Ebene 1" xmlns="http://www.w3.org/2000/svg" viewBox="0 0 3187.95 683.18"><path d="M1036,504.31a250.74,250.74,0,0,1-88.95-15.92,217.79,217.79,0,0,1-74.19-46.49c-21.2-20.24-38.41-45.49-51.15-75s-19.22-64-19.22-102.47v-11c0-37.83,6.46-72,19.22-101.55s30.11-54.95,51.61-75.51A219.72,219.72,0,0,1,948,29.36a251.34,251.34,0,0,1,176.06,0,220,220,0,0,1,74.65,47c21.48,20.55,38.85,46,51.6,75.51s19.23,63.75,19.23,101.55v11c0,38.43-6.47,72.91-19.23,102.47s-30,54.79-51.14,75a217.33,217.33,0,0,1-74.67,46.5A252.17,252.17,0,0,1,1036,504.31Zm0-480.87a238.28,238.28,0,0,0-84.5,15.28,209.68,209.68,0,0,0-71.27,44.82c-20.53,19.63-37.13,43.94-49.34,72.24s-18.4,61.13-18.4,97.59v11c0,37.08,6.19,70.23,18.4,98.51s28.66,52.47,48.88,71.78A208.18,208.18,0,0,0,950.6,479,245.22,245.22,0,0,0,1121,479a207.3,207.3,0,0,0,71.26-44.36c20.22-19.33,36.66-43.48,48.87-71.78s18.41-61.45,18.41-98.51v-11c0-36.43-6.19-69.27-18.41-97.59s-28.82-52.62-49.33-72.24a210.19,210.19,0,0,0-71.28-44.83A238.4,238.4,0,0,0,1036,23.44Zm0,413c-22.63,0-43.79-4-62.92-11.84a147.28,147.28,0,0,1-50.81-34.66c-14.48-15.11-25.95-33.42-34.09-54.42s-12.27-44.88-12.27-71.1v-11c0-25,4.13-48.29,12.27-69.26s19.61-39.32,34.09-54.42a157.53,157.53,0,0,1,51.17-35.54,159.28,159.28,0,0,1,125.12,0,157.87,157.87,0,0,1,51.18,35.54c14.44,15.09,25.91,33.39,34.08,54.42s12.28,44.32,12.28,69.26v11c0,26.18-4.13,50.1-12.27,71.1s-19.63,39.32-34.09,54.42a147.6,147.6,0,0,1-50.82,34.66C1079.78,432.42,1058.61,436.4,1036,436.4Zm0-345a145.83,145.83,0,0,0-58.57,12,147.58,147.58,0,0,0-47.94,33.29c-13.56,14.14-24.32,31.34-32,51.12s-11.6,41.9-11.6,65.64v11c0,25,3.9,47.68,11.6,67.48s18.41,37,32,51.12a137.33,137.33,0,0,0,47.39,32.33c17.91,7.36,37.8,11.09,59.12,11.09s41.17-3.73,59.13-11.09A137.79,137.79,0,0,0,1142.54,383c13.54-14.14,24.3-31.34,32-51.12s11.6-42.54,11.6-67.48v-11c0-23.7-3.9-45.79-11.6-65.64s-18.45-37-32-51.12a147.88,147.88,0,0,0-48-33.29A145.83,145.83,0,0,0,1036,91.35Z"/><path d="M2485.36,503.23c-33,0-63.77-5.84-91.5-17.38a207.06,207.06,0,0,1-72-49.43c-20-21.18-35.75-46.77-47-76.06S2258,298.37,2258,263V241c0-32.39,5.84-63,17.37-91a217.33,217.33,0,0,1,48.44-72.87,227.81,227.81,0,0,1,72.79-47.92c27.75-11.53,58.23-17.38,90.59-17.38,38,0,71.34,7.14,99.2,21.21s50.81,31.59,68.6,52.19A207.34,207.34,0,0,1,2694.53,153c8.41,24.31,12.68,47.12,12.68,67.79v63.81H2339.94c2.62,41.5,16.27,75.41,40.61,100.88,25.23,26.41,61.11,39.81,106.65,39.81,20.87,0,39.23-2.4,54.58-7.13s28.53-11.24,39.34-19.42a106,106,0,0,0,26.33-28.52A166.75,166.75,0,0,0,2624,334.93l1.49-4.47,77.53,21-1.5,4.93c-13.11,43.08-37.66,78.7-72.95,105.87S2545,503.23,2485.36,503.23Zm1.84-481.47c-31,0-60.23,5.59-86.75,16.62a217.85,217.85,0,0,0-69.62,45.8,207.5,207.5,0,0,0-46.2,69.55c-11,26.8-16.62,56.15-16.62,87.23v22c0,34.14,5.45,65.69,16.2,93.77s25.86,52.56,44.91,72.79a197.36,197.36,0,0,0,68.57,47.05c26.52,11,56,16.61,87.67,16.61,57.39,0,103.51-13.09,137.07-38.93a196.78,196.78,0,0,0,67.92-95.94l-58.46-15.8A177.42,177.42,0,0,1,2616,375.45a115.89,115.89,0,0,1-28.8,31.21c-11.74,8.89-26,16-42.43,21s-35.66,7.57-57.52,7.57c-48.38,0-86.69-14.44-113.88-42.9s-41.77-66.22-43.64-112.59l-.21-5.2h367.74V220.74c0-19.55-4.08-41.26-12.13-64.52a197.32,197.32,0,0,0-37.65-64.53c-16.93-19.6-39-36.35-65.55-49.8S2523.59,21.76,2487.2,21.76Zm148.67,196.63H2330.8l.75-5.66a156.16,156.16,0,0,1,16.62-52.67A147.71,147.71,0,0,1,2429,89.71a168.05,168.05,0,0,1,58.24-9.95,156.9,156.9,0,0,1,53.62,9.48,154.75,154.75,0,0,1,46.53,26.59,136.3,136.3,0,0,1,33.39,42c8.54,16.47,13.52,35.06,14.79,55.28Zm-293.55-10h282.8a125.54,125.54,0,0,0-44.19-84.89,144.83,144.83,0,0,0-43.52-24.86,147,147,0,0,0-50.21-8.88,157.9,157.9,0,0,0-54.78,9.34A137.69,137.69,0,0,0,2357,164.74,144.92,144.92,0,0,0,2342.32,208.39Z"/><path d="M2121.84,673H1820.05V596.82h276.06c13.7,0,19.81-7,19.81-22.57V419.36h-3.05c-15,27-35.41,47.66-60.77,61.42-26,14.12-54.83,21.28-85.54,21.28a243.65,243.65,0,0,1-88.17-16A219,219,0,0,1,1805.52,440c-20.92-20-37.7-45.13-49.87-74.76s-18.29-63.74-18.29-101.59V249c0-37.26,6.31-71.15,18.77-100.71s29.2-54.85,49.8-75.13a211,211,0,0,1,72.45-46.59,238.62,238.62,0,0,1,86.33-15.95c33.81,0,63.87,7.49,89.34,22.27,28,16.25,45.78,33.78,58.87,58.2h84.67V596.3c0,22.07-7.13,40.56-21.18,55S2143.94,673,2121.84,673Zm-291.79-10h291.79c19.59,0,35.1-6.12,47.42-18.71s18.33-28.32,18.33-48V101.07h-80.76l-1.39-2.72c-12.28-24-29.15-41-56.4-56.83-23.94-13.88-52.31-20.92-84.33-20.92A228.7,228.7,0,0,0,1882,35.87a201.33,201.33,0,0,0-69,44.38c-19.65,19.36-35.66,43.54-47.6,71.89s-18,60.91-18,96.83v14.71c0,36.54,5.9,69.44,17.54,97.79s27.63,52.33,47.53,71.33a208.78,208.78,0,0,0,69.56,44,233.83,233.83,0,0,0,84.57,15.29c29,0,56.2-6.76,80.77-20.07s44-33.43,58.16-60l1.41-2.65h19V574.25c0,21-10.59,32.57-29.81,32.57H1830.05Zm138.34-228.91c-22.63,0-43.68-4-62.57-11.86A147,147,0,0,1,1855.89,388c-14.19-14.81-25.36-32.84-33.22-53.6s-11.81-44.44-11.81-70.68V249c0-25,4-48.18,11.81-68.85a162.43,162.43,0,0,1,33.19-54,148.29,148.29,0,0,1,50.39-35.17,157.55,157.55,0,0,1,62.14-12.35,150.54,150.54,0,0,1,61.29,12.83A153.94,153.94,0,0,1,2080,127c14.15,15.1,25.47,33.41,33.64,54.44s12.28,44.36,12.28,69.35v11c0,25.59-4.13,49.22-12.28,70.25s-19.48,39.36-33.64,54.45a149.43,149.43,0,0,1-49.89,35.17A154.17,154.17,0,0,1,1968.39,434.06Zm0-345.48a147.8,147.8,0,0,0-58.22,11.54,138.52,138.52,0,0,0-47,32.82A152.62,152.62,0,0,0,1832,183.67c-7.4,19.53-11.16,41.5-11.16,65.3v14.71c0,25,3.76,47.61,11.16,67.14s17.84,36.39,31.1,50.23A137,137,0,0,0,1909.67,413c17.66,7.36,37.42,11.09,58.72,11.09a144.26,144.26,0,0,0,57.74-11.53,139.31,139.31,0,0,0,46.58-32.83c13.27-14.15,23.91-31.39,31.6-51.22s11.61-42.3,11.61-66.64v-11c0-23.75-3.91-45.86-11.61-65.73S2086,148,2072.71,133.86a144.06,144.06,0,0,0-47.08-33.31A140.62,140.62,0,0,0,1968.39,88.58Z"/><path d="M2845.13,488h-81.66V91.28l84.55,0c27.64-56.11,80.93-84.75,150.44-80.75,58.39,3.38,99.45,19.49,129.21,50.7,32,33.59,48.25,84.37,48.25,150.93V487.73h-81.67V226.91c0-46.28-10.39-81.33-30.88-104.17-20.36-22.67-48.48-34.17-83.57-34.17-41.74,0-74.91,14.39-98.61,42.77-23.93,28.65-36.06,67.6-36.06,115.78Zm-71.66-10h61.66V247.12c0-50.58,12.92-91.69,38.38-122.19C2899.2,94.17,2935,78.57,2979.8,78.57c38,0,68.67,12.61,91,37.49,22.19,24.74,33.44,62,33.44,110.85V477.73h61.67V212.21c0-63.91-15.3-112.36-45.48-144-27.91-29.26-66.85-44.39-122.55-47.61-32.16-1.86-60.55,3.5-84.38,15.92-25.25,13.16-44.7,34-57.82,62l-1.35,2.88-80.87-.06Z"/><path d="M1403.32,488h-81.26l-.52-397.19h84.54C1419,64.1,1436.36,44.13,1456.43,33c22.08-12.31,47.63-18.55,75.94-18.55,47.15,0,85.78,15.68,114.82,46.6s44.51,76.12,46.38,134.66l.14,4.46-85.49,12.52v-5.79c0-40.61-9.66-70.13-28.72-87.75s-43.06-26.69-71-26.69c-18.08,0-33.82,3.51-46.8,10.43a94.73,94.73,0,0,0-32.74,28.82c-8.8,12.31-15.33,26.89-19.43,43.32a222.7,222.7,0,0,0-6.29,53.93Zm-71.27-10h61.26l-.1-249.08a232.58,232.58,0,0,1,6.59-56.35c4.4-17.66,11.46-33.38,21-46.71A104.65,104.65,0,0,1,1457,94c14.44-7.71,31.77-11.61,51.51-11.61,30.57,0,56.75,9.87,77.82,29.35,20.24,18.71,31,48.74,31.87,89.32l65.24-9.55c-2.41-53.88-17-95.47-43.5-123.68-27.08-28.83-63.26-43.45-107.53-43.45-26.58,0-50.49,5.82-71.07,17.29-18.93,10.54-35.36,30-47.52,56.22l-1.34,2.9h-80.88Z"/><path d="M424.2,488.13H342.53V213.9c-1.79-39.77-12.08-70.39-30.59-91-20.36-22.68-48.48-34.18-83.57-34.18-41.74,0-74.91,14.39-98.61,42.77C105.83,160.14,93.7,199.09,93.7,247.27V488.13H12V91.41l84.55.06C124.23,35.36,177.52,6.71,247,10.72c58.39,3.38,99.45,19.49,129.21,50.7a148.43,148.43,0,0,1,22,30l28.82,0C454.72,35.36,508,6.71,577.52,10.72,635.91,14.1,677,30.21,706.74,61.42h0C738.75,95,755,145.8,755,212.36V487.88H673.31V227.06c0-46.28-10.39-81.33-30.88-104.17C622.07,100.22,594,88.72,558.86,88.72c-41.73,0-74.91,14.39-98.61,42.77-21.8,26.1-33.83,60.79-35.76,103.12V487.88h-.29Zm-71.67-10H414.2v-.25h.29V234.27c2-44.61,14.83-81.35,38.08-109.19C478.26,94.32,514,78.72,558.86,78.72c38,0,68.67,12.61,91,37.49,22.19,24.73,33.44,62,33.44,110.85V477.88H745V212.36c0-63.91-15.3-112.37-45.48-144h0C671.59,39.06,632.65,23.93,577,20.71c-32.17-1.86-60.55,3.5-84.38,15.92-25.25,13.16-44.7,34-57.82,62l-1.35,2.88-41.1,0-1.41-2.64A139.8,139.8,0,0,0,369,68.32C341.1,39.06,302.16,23.93,246.46,20.71c-32.17-1.86-60.55,3.5-84.38,15.92-25.25,13.16-44.7,34-57.82,62l-1.35,2.88L22,101.42V478.13H83.7V247.27c0-50.58,12.92-91.69,38.38-122.2,25.69-30.76,61.45-46.36,106.29-46.36,38.05,0,68.67,12.62,91,37.5,20.11,22.41,31.26,55.17,33.14,97.36V478.13Z"/></svg>