<svg id="Ebene_1" data-name="Ebene 1" xmlns="http://www.w3.org/2000/svg" viewBox="0 0 3187.95 683.18"><defs><style>.cls-1{stroke:#000;stroke-miterlimit:10;stroke-width:6px;}</style></defs><path class="cls-1" d="M1264.53,264.38q0,56.91-18.82,100.49t-50,73.42a211.29,211.29,0,0,1-73,45.42,250.14,250.14,0,0,1-173.91,0,211.84,211.84,0,0,1-72.49-45.42q-31.22-29.82-50-73.42T807.51,264.38v-11q0-56,18.81-99.57t50.47-73.88a213.88,213.88,0,0,1,73-45.88,246.31,246.31,0,0,1,172.53,0,214,214,0,0,1,73,45.88q31.66,30.3,50.47,73.88t18.82,99.57ZM1036,431.4q33,0,61-11.47a142,142,0,0,0,49.1-33.49q21.09-22,33-52.77t11.94-69.29v-11q0-36.69-11.94-67.45t-33-52.77a152.25,152.25,0,0,0-49.56-34.42,154.36,154.36,0,0,0-121.14,0,151.89,151.89,0,0,0-49.55,34.42q-21.12,22-33,52.77t-11.93,67.45v11q0,38.55,11.93,69.29t33,52.77A141.48,141.48,0,0,0,975,419.93Q1003,431.42,1036,431.4Z"/><path class="cls-1" d="M2334.67,279.55q2.76,68,42.27,109.34t110.26,41.35q32.15,0,56.05-7.35t40.89-20.22a110.47,110.47,0,0,0,27.56-29.86,171.45,171.45,0,0,0,17-36.3l68,18.39q-19.3,63.39-71.22,103.36t-140.12,40q-48.71,0-89.58-17a201.17,201.17,0,0,1-70.3-48.23q-29.42-31.23-45.94-74.43T2263,263V241q0-47.78,17-89.13t47.31-71.21a221.84,221.84,0,0,1,71.21-46.86q40.88-17,88.67-17,56,0,96.94,20.67t67.08,51a201.44,201.44,0,0,1,38.59,66.15q12.39,35.83,12.4,66.16v58.81ZM2487.2,84.76a162.2,162.2,0,0,0-56.51,9.64,142.73,142.73,0,0,0-78.1,68,150.29,150.29,0,0,0-16.08,51h294Q2628.7,184,2616.3,160.1a130.75,130.75,0,0,0-32.16-40.43,149,149,0,0,0-45-25.73A151.26,151.26,0,0,0,2487.2,84.76Z"/><path class="cls-1" d="M2120.92,414.36h-11q-22.05,41.34-60.19,62t-83.15,20.68q-46,0-86.37-15.62a213.06,213.06,0,0,1-71.21-45q-30.8-29.4-48.7-73.05t-17.92-99.69V249q0-55.12,18.38-98.77t48.7-73.51a204.93,204.93,0,0,1,70.75-45.48,232.53,232.53,0,0,1,84.52-15.62q49.63,0,86.84,21.59c24.81,14.4,44.24,31.32,58.34,58.88h82.7V596.3q0,31.23-19.76,51.45t-51,20.22H1825.05V601.82h271.06q24.81,0,24.81-27.57Zm-152.53,14.7q32.16,0,59.73-11.94a143.83,143.83,0,0,0,48.24-34q20.67-22,32.62-52.83t11.94-68.45v-11q0-36.74-11.94-67.54t-32.62-52.83A148.57,148.57,0,0,0,2027.66,96a144.9,144.9,0,0,0-59.27-12.4,152.07,152.07,0,0,0-60.18,11.94,142.74,142.74,0,0,0-48.7,34,156.55,156.55,0,0,0-32.16,52.38q-11.5,30.32-11.49,67.07v14.7q0,38.59,11.49,68.92t32.16,51.92a141.12,141.12,0,0,0,48.24,33.07Q1935.32,429.07,1968.39,429.06Z"/><path class="cls-1" d="M2840.13,483h-71.66V96.28l82.69.06c28.17-60,82.93-84.47,147-80.76,52.58,3,94.63,16.39,125.88,49.15s46.86,81.94,46.86,147.48V482.73h-71.67V226.91q0-71.67-32.16-107.51T2979.8,83.57q-65.25,0-102.45,44.56t-37.22,119Z"/><path class="cls-1" d="M1326.55,95.81h82.69c11.64-25.11,28.17-46.55,49.62-58.49s46-17.92,73.51-17.92q68.91,0,111.18,45t45,131.39l-75.35,11q0-63.39-30.32-91.42t-74.43-28q-28.48,0-49.16,11a99.18,99.18,0,0,0-34.45,30.32q-13.78,19.29-20.21,45a226.28,226.28,0,0,0-6.44,55.14l.11,254.08h-71.26Z"/><path class="cls-1" d="M703.12,64.87c-31.24-32.76-73.29-46.11-125.88-49.16-64.1-3.7-118.85,20.74-147,80.77l-34.92,0a143.87,143.87,0,0,0-22.67-31.58c-31.25-32.76-73.3-46.11-125.89-49.16C182.65,12,127.9,36.45,99.73,96.48L17,96.42V483.13H88.7V247.27q0-74.43,37.22-119T228.37,83.71q55.13,0,87.29,35.84,29.1,32.43,31.87,94.24V483.13H419.2v-.25h.29V234.49q3-65.53,36.92-106.21,37.21-44.55,102.45-44.56,55.13,0,87.29,35.83t32.16,107.51V482.88H750V212.36Q750,114,703.12,64.87Z"/></svg>